<svg width="25" height="25" viewBox="0 0 25 25" fill="none" xmlns="http://www.w3.org/2000/svg">
<path d="M19.7917 4.16665H17.7083V3.12498C17.7083 2.84871 17.5986 2.58376 17.4032 2.38841C17.2079 2.19306 16.9429 2.08331 16.6667 2.08331C16.3904 2.08331 16.1254 2.19306 15.9301 2.38841C15.7347 2.58376 15.625 2.84871 15.625 3.12498V4.16665H9.375V3.12498C9.375 2.84871 9.26525 2.58376 9.0699 2.38841C8.87455 2.19306 8.6096 2.08331 8.33333 2.08331C8.05707 2.08331 7.79211 2.19306 7.59676 2.38841C7.40141 2.58376 7.29167 2.84871 7.29167 3.12498V4.16665H5.20833C4.37953 4.16665 3.58467 4.49589 2.99862 5.08194C2.41257 5.66799 2.08333 6.46285 2.08333 7.29165V19.7916C2.08333 20.6204 2.41257 21.4153 2.99862 22.0014C3.58467 22.5874 4.37953 22.9166 5.20833 22.9166H19.7917C20.6205 22.9166 21.4153 22.5874 22.0014 22.0014C22.5874 21.4153 22.9167 20.6204 22.9167 19.7916V7.29165C22.9167 6.46285 22.5874 5.66799 22.0014 5.08194C21.4153 4.49589 20.6205 4.16665 19.7917 4.16665ZM20.8333 19.7916C20.8333 20.0679 20.7236 20.3329 20.5282 20.5282C20.3329 20.7236 20.0679 20.8333 19.7917 20.8333H5.20833C4.93207 20.8333 4.66711 20.7236 4.47176 20.5282C4.27641 20.3329 4.16667 20.0679 4.16667 19.7916V12.5H20.8333V19.7916ZM20.8333 10.4166H4.16667V7.29165C4.16667 7.01538 4.27641 6.75043 4.47176 6.55508C4.66711 6.35973 4.93207 6.24998 5.20833 6.24998H7.29167V7.29165C7.29167 7.56791 7.40141 7.83287 7.59676 8.02822C7.79211 8.22357 8.05707 8.33331 8.33333 8.33331C8.6096 8.33331 8.87455 8.22357 9.0699 8.02822C9.26525 7.83287 9.375 7.56791 9.375 7.29165V6.24998H15.625V7.29165C15.625 7.56791 15.7347 7.83287 15.9301 8.02822C16.1254 8.22357 16.3904 8.33331 16.6667 8.33331C16.9429 8.33331 17.2079 8.22357 17.4032 8.02822C17.5986 7.83287 17.7083 7.56791 17.7083 7.29165V6.24998H19.7917C20.0679 6.24998 20.3329 6.35973 20.5282 6.55508C20.7236 6.75043 20.8333 7.01538 20.8333 7.29165V10.4166Z" fill="#3A2D28"/>
</svg>
