<svg width="25" height="25" viewBox="0 0 25 25" fill="none" xmlns="http://www.w3.org/2000/svg">
<g clip-path="url(#clip0_21_175)">
<path fill-rule="evenodd" clip-rule="evenodd" d="M10.7857 2.30892C11.2926 1.96768 11.8898 1.7854 12.5009 1.7854C13.112 1.7854 13.7092 1.96768 14.2161 2.30892L15.4018 3.11963C18.8539 5.46395 21.8589 8.4067 24.275 11.8089L24.6554 12.3482C25.1196 13.0089 25.0875 13.8018 24.7232 14.3964C24.54 14.6917 24.2835 14.9346 23.9788 15.1017C23.6741 15.2687 23.3314 15.3543 22.9839 15.35H21.9714C22.025 17.0071 21.9304 18.9964 21.6857 20.4268C21.3982 22.1143 19.8393 23.2143 18.1786 23.2143H6.82143C5.16071 23.2143 3.60179 22.1143 3.31429 20.4286C3.06964 18.9964 2.975 17.0071 3.02857 15.35H2.01429C1.28036 15.35 0.630357 14.9768 0.275 14.3964C0.0835012 14.0861 -0.011898 13.726 0.000812303 13.3615C0.0135226 12.997 0.133774 12.6445 0.346429 12.3482L0.725 11.8089C3.14163 8.40654 6.14728 5.46379 9.6 3.11963L10.7857 2.30892ZM12.9554 4.15178C12.8197 4.06413 12.6615 4.01751 12.5 4.01751C12.3385 4.01751 12.1803 4.06413 12.0446 4.15178L10.8589 4.96249C7.62775 7.15828 4.81406 9.91271 2.55 13.0964L2.53393 13.1178H4.2125C4.36742 13.118 4.52062 13.1503 4.66235 13.2129C4.80408 13.2755 4.93122 13.3669 5.0357 13.4812C5.14018 13.5956 5.2197 13.7305 5.2692 13.8773C5.3187 14.0241 5.3371 14.1796 5.32321 14.3339C5.175 15.9607 5.24107 18.4589 5.51429 20.0518C5.59107 20.5036 6.07679 20.9821 6.82143 20.9821H9.075V16.6696C9.06458 16.2134 9.14544 15.7597 9.31284 15.3351C9.48023 14.9106 9.73079 14.5238 10.0498 14.1974C10.3688 13.871 10.7498 13.6117 11.1704 13.4347C11.591 13.2576 12.0427 13.1664 12.4991 13.1664C12.9555 13.1664 13.4072 13.2576 13.8278 13.4347C14.2485 13.6117 14.6295 13.871 14.9484 14.1974C15.2674 14.5238 15.518 14.9106 15.6854 15.3351C15.8528 15.7597 15.9336 16.2134 15.9232 16.6696V20.9821H18.1786C18.9232 20.9821 19.4089 20.5036 19.4857 20.0518C19.7589 18.4589 19.825 15.9625 19.6768 14.3339C19.6629 14.1796 19.6813 14.0241 19.7308 13.8773C19.7803 13.7305 19.8598 13.5956 19.9643 13.4812C20.0688 13.3669 20.1959 13.2755 20.3377 13.2129C20.4794 13.1503 20.6326 13.118 20.7875 13.1178H22.4661L22.45 13.0964C20.1865 9.91287 17.3734 7.15845 14.1429 4.96249L12.9554 4.15178Z" fill="#3A2D28"/>
</g>
<defs>
<clipPath id="clip0_21_175">
<rect width="25" height="25" fill="white"/>
</clipPath>
</defs>
</svg>
