<svg width="25" height="25" viewBox="0 0 25 25" fill="none" xmlns="http://www.w3.org/2000/svg">
<path fill-rule="evenodd" clip-rule="evenodd" d="M14.5667 2.6479C14.6573 2.82394 14.6802 3.04998 14.725 3.50206C14.8104 4.35623 14.8531 4.78331 15.0323 5.01873C15.1439 5.1649 15.2923 5.27891 15.4622 5.34916C15.6322 5.41942 15.8177 5.44342 16 5.41873C16.2917 5.38019 16.625 5.10831 17.2896 4.56456C17.6406 4.27602 17.8167 4.13227 18.0052 4.07185C18.2453 3.99512 18.5051 4.00808 18.7365 4.10831C18.9187 4.18748 19.0802 4.3479 19.4 4.66873L20.3312 5.59998C20.6521 5.92081 20.8125 6.08123 20.8917 6.26352C20.9919 6.49483 21.0049 6.75464 20.9281 6.99477C20.8677 7.18331 20.724 7.35935 20.4365 7.7104C19.8917 8.37602 19.6198 8.70831 19.5802 9.00102C19.5558 9.18321 19.5801 9.3686 19.6505 9.53838C19.7209 9.70815 19.8351 9.85627 19.9812 9.96769C20.2156 10.1469 20.6437 10.1896 21.499 10.275C21.95 10.3198 22.176 10.3427 22.3531 10.4333C22.5765 10.5491 22.7504 10.7419 22.8427 10.976C22.9167 11.1604 22.9167 11.3875 22.9167 11.8416V13.1583C22.9167 13.6125 22.9167 13.8396 22.8437 14.0229C22.7512 14.2577 22.5764 14.451 22.3521 14.5666C22.176 14.6573 21.95 14.6802 21.4979 14.725C20.6437 14.8104 20.2167 14.8531 19.9812 15.0323C19.8351 15.1439 19.7211 15.2922 19.6508 15.4622C19.5806 15.6322 19.5566 15.8177 19.5812 16C19.6208 16.2916 19.8927 16.625 20.4365 17.2896C20.724 17.6406 20.8677 17.8156 20.9281 18.0052C21.0049 18.2453 20.9919 18.5051 20.8917 18.7364C20.8125 18.9187 20.6521 19.0791 20.3312 19.4L19.4 20.3302C19.0792 20.6521 18.9187 20.8125 18.7365 20.8906C18.5051 20.9908 18.2453 21.0038 18.0052 20.9271C17.8167 20.8666 17.6406 20.7229 17.2896 20.4354C16.624 19.8916 16.2917 19.6198 16 19.5812C15.8177 19.5565 15.6322 19.5805 15.4622 19.6508C15.2923 19.7211 15.1439 19.8351 15.0323 19.9812C14.8531 20.2156 14.8104 20.6427 14.725 21.4979C14.6802 21.95 14.6573 22.176 14.5667 22.3521C14.4512 22.5762 14.2584 22.7509 14.024 22.8437C13.8396 22.9166 13.6125 22.9166 13.1583 22.9166H11.8417C11.3875 22.9166 11.1604 22.9166 10.9771 22.8437C10.7422 22.7511 10.549 22.5764 10.4333 22.3521C10.3427 22.176 10.3198 21.95 10.275 21.4979C10.1896 20.6437 10.1469 20.2166 9.9677 19.9812C9.85617 19.8352 9.708 19.7213 9.53823 19.6511C9.36846 19.5808 9.18313 19.5567 9.00104 19.5812C8.70833 19.6198 8.37604 19.8916 7.71041 20.4354C7.35937 20.7239 7.18333 20.8677 6.99479 20.9281C6.75466 21.0048 6.49484 20.9919 6.26354 20.8916C6.08125 20.8125 5.91979 20.6521 5.6 20.3312L4.66875 19.4C4.34791 19.0791 4.18749 18.9187 4.10833 18.7364C4.00809 18.5051 3.99514 18.2453 4.07187 18.0052C4.13229 17.8166 4.27604 17.6406 4.56354 17.2896C5.10833 16.6239 5.3802 16.2916 5.41875 15.9989C5.44325 15.8168 5.41915 15.6315 5.3489 15.4617C5.27865 15.292 5.16475 15.1438 5.01874 15.0323C4.78437 14.8531 4.35625 14.8104 3.50104 14.725C3.05 14.6802 2.82395 14.6573 2.64687 14.5666C2.42348 14.4508 2.24957 14.258 2.15729 14.0239C2.08333 13.8396 2.08333 13.6125 2.08333 13.1583V11.8416C2.08333 11.3875 2.08333 11.1604 2.15624 10.9771C2.24884 10.7422 2.42355 10.549 2.64791 10.4333C2.82395 10.3427 3.05 10.3198 3.50208 10.275C4.35625 10.1896 4.78437 10.1469 5.01874 9.96769C5.16494 9.85627 5.27904 9.70815 5.34948 9.53838C5.41991 9.3686 5.44417 9.18321 5.41979 9.00102C5.3802 8.70831 5.10729 8.37602 4.56354 7.70935C4.27604 7.35831 4.13229 7.18331 4.07187 6.99373C3.99514 6.7536 4.00809 6.49379 4.10833 6.26248C4.18749 6.08123 4.34791 5.91977 4.66875 5.59894L5.6 4.66873C5.92083 4.3479 6.08125 4.18644 6.26354 4.10831C6.49484 4.00808 6.75466 3.99512 6.99479 4.07185C7.18333 4.13227 7.35937 4.27602 7.71041 4.56352C8.37604 5.10727 8.70833 5.37915 9 5.41873C9.18251 5.4435 9.36833 5.41943 9.53851 5.34898C9.70869 5.27853 9.85714 5.16421 9.96875 5.01769C10.1458 4.78331 10.1896 4.35623 10.275 3.50102C10.3198 3.04998 10.3427 2.82394 10.4333 2.64685C10.549 2.42307 10.7418 2.24877 10.976 2.15623C11.1604 2.08331 11.3875 2.08331 11.8417 2.08331H13.1583C13.6125 2.08331 13.8396 2.08331 14.0229 2.15623C14.2577 2.24882 14.451 2.42354 14.5667 2.6479ZM12.5 16.6666C13.6051 16.6666 14.6649 16.2277 15.4463 15.4463C16.2277 14.6649 16.6667 13.605 16.6667 12.5C16.6667 11.3949 16.2277 10.3351 15.4463 9.5537C14.6649 8.7723 13.6051 8.33331 12.5 8.33331C11.3949 8.33331 10.3351 8.7723 9.55372 9.5537C8.77232 10.3351 8.33333 11.3949 8.33333 12.5C8.33333 13.605 8.77232 14.6649 9.55372 15.4463C10.3351 16.2277 11.3949 16.6666 12.5 16.6666Z" fill="#3A2D28"/>
</svg>
