<svg width="25" height="25" viewBox="0 0 25 25" fill="none" xmlns="http://www.w3.org/2000/svg">
<path d="M21.4979 14.725L21.3948 13.6885L21.3604 13.6916L21.3271 13.6979L21.4979 14.725ZM21.4979 14.725L21.6021 15.7614L21.6365 15.7583L21.6698 15.7531L21.4979 14.725ZM17.2896 20.4354L17.949 19.6291L17.9406 19.6229L17.2896 20.4354ZM17.2896 20.4354L16.6302 21.2416L16.6385 21.2489L17.2896 20.4354ZM7.71041 20.4354L7.05104 19.6302L7.03437 19.6437L7.01875 19.6573L7.71041 20.4354ZM7.71041 20.4354L8.36979 21.2427L8.38645 21.2291L8.40208 21.2146L7.71041 20.4354ZM3.50104 10.275V9.23331H3.44895L3.39791 9.23852L3.50104 10.275ZM3.50104 10.275V11.3166H3.55312L3.6052 11.3114L3.50104 10.275ZM15.7615 3.39686C15.7443 3.19649 15.7196 2.99674 15.6896 2.7979C15.6574 2.579 15.5906 2.36661 15.4917 2.16873L13.6406 3.12498C13.6167 3.07811 13.6219 3.06144 13.6354 3.14373C13.651 3.23644 13.6646 3.36561 13.6885 3.60519L15.7615 3.39686ZM15.8604 4.38644C15.926 4.47186 15.9042 4.5104 15.8677 4.30727C15.8333 4.11352 15.8062 3.84165 15.7615 3.39686L13.6875 3.60415C13.7292 4.01456 13.7646 4.38331 13.8177 4.67706C13.8687 4.95831 13.9583 5.32811 14.2031 5.64894L15.8604 4.38644ZM15.8604 4.38644L14.2031 5.64894C14.426 5.94149 14.7225 6.1698 15.0622 6.31068C15.402 6.45156 15.773 6.49998 16.1375 6.45102L15.8604 4.38644ZM16.6292 3.75623C16.3957 3.95354 16.1556 4.14288 15.9094 4.32394C15.7396 4.44165 15.7531 4.39998 15.8604 4.38644L16.1375 6.45102C16.5375 6.39686 16.8625 6.19894 17.0979 6.03436C17.3427 5.86561 17.6292 5.63019 17.9479 5.36873L16.6292 3.75623ZM17.6875 3.07915C17.4778 3.1489 17.2805 3.25157 17.1031 3.38331C16.9573 3.48748 16.7937 3.62186 16.6292 3.75623L17.9479 5.36873C18.1344 5.21665 18.2354 5.13436 18.3125 5.08019C18.3802 5.03123 18.3708 5.0479 18.3219 5.06352L17.6875 3.07915ZM19.15 3.15206C18.6874 2.95159 18.1678 2.92568 17.6875 3.07915L18.3219 5.06352L19.15 3.15206ZM20.1354 3.93123C19.9952 3.78702 19.8503 3.64737 19.701 3.51248C19.5373 3.3638 19.3509 3.24214 19.149 3.15206L18.3219 5.06352C18.274 5.04269 18.2667 5.02602 18.3292 5.08123C18.4 5.14373 18.4927 5.23436 18.6625 5.40415L20.1354 3.93123ZM21.0667 4.86248L20.1354 3.93123L18.6625 5.40415L19.5937 6.3354L21.0667 4.86248ZM21.8458 5.8479C21.7558 5.64591 21.6341 5.45954 21.4854 5.29581C21.3505 5.14692 21.2109 5.0024 21.0667 4.86248L19.5937 6.33644C19.7635 6.50623 19.8542 6.59894 19.9167 6.66977C19.9719 6.73227 19.9552 6.72498 19.9344 6.67706L21.8458 5.8479ZM21.9187 7.3104C22.0722 6.83013 22.0463 6.31051 21.8458 5.8479L19.9344 6.67706L21.9187 7.3104ZM21.2417 8.36873C21.371 8.21478 21.4954 8.05672 21.6146 7.89477C21.725 7.74061 21.8437 7.54894 21.9187 7.3104L19.9344 6.67706C19.95 6.62811 19.9656 6.61769 19.9177 6.68644C19.8635 6.76248 19.7823 6.86352 19.6292 7.04998L21.2417 8.36873ZM20.6115 9.13852C20.5979 9.24581 20.5562 9.25831 20.674 9.08852C20.7854 8.92706 20.9583 8.71456 21.2417 8.36873L19.6292 7.04998C19.3687 7.36873 19.1323 7.65519 18.9625 7.89998C18.799 8.1354 18.601 8.4604 18.5469 8.8604L20.6115 9.13852ZM20.6115 9.13852L18.5469 8.8604C18.4979 9.22493 18.5463 9.59593 18.6872 9.93568C18.8281 10.2754 19.0564 10.5718 19.349 10.7948L20.6115 9.13852ZM21.601 9.23748C21.2964 9.212 20.9928 9.17622 20.6906 9.13019C20.4875 9.09373 20.526 9.0729 20.6115 9.13852L19.349 10.7948C19.6698 11.0396 20.0385 11.1291 20.3219 11.1802C20.6146 11.2323 20.9833 11.2687 21.3937 11.3104L21.601 9.23748ZM22.8292 9.50623C22.6313 9.40727 22.4189 9.34046 22.2 9.30831C22.0012 9.27829 21.8014 9.25466 21.601 9.23748L21.3937 11.3104C21.548 11.3239 21.7018 11.3413 21.8552 11.3625C21.9385 11.3771 21.9208 11.3823 21.874 11.3583L22.8292 9.50623ZM23.8115 10.5927C23.6263 10.1236 23.2773 9.73755 22.8292 9.50623L21.875 11.3604L23.8115 10.5927ZM23.9573 11.8406C23.9573 11.6281 23.9573 11.4166 23.9458 11.2375C23.9353 11.0164 23.8896 10.7984 23.8104 10.5916L21.875 11.3604C21.8562 11.3114 21.8625 11.2948 21.8687 11.3781C21.875 11.4719 21.875 11.6021 21.875 11.8427L23.9573 11.8406ZM23.9573 13.1573V11.8406H21.874V13.1573H23.9573ZM23.8115 14.4052C23.9031 14.1729 23.9333 13.95 23.9458 13.7594C23.9573 13.5812 23.9573 13.3698 23.9573 13.1573H21.874C21.874 13.3979 21.874 13.5281 21.8677 13.6219C21.8615 13.7052 21.8552 13.6885 21.874 13.6396L23.8115 14.4052ZM22.8292 15.4916C23.2773 15.2603 23.6263 14.8743 23.8115 14.4052L21.875 13.6406L22.8292 15.4916ZM21.601 15.7604C21.8135 15.7396 22.0229 15.7187 22.2 15.6896C22.3875 15.6583 22.6062 15.6062 22.8292 15.4916L21.875 13.6406C21.9208 13.6166 21.9385 13.6219 21.8562 13.6354C21.7029 13.6574 21.5491 13.6751 21.3948 13.6885L21.601 15.7604ZM20.6125 15.8594C20.526 15.925 20.4875 15.9041 20.6906 15.8677C20.8844 15.8333 21.1562 15.8052 21.601 15.7604L21.3937 13.6875C20.9844 13.7291 20.6146 13.7646 20.3219 13.8177C20.0396 13.8687 19.6698 13.9583 19.349 14.2031L20.6125 15.8594ZM20.6125 15.8594L19.349 14.2031C19.0564 14.426 18.8281 14.7224 18.6872 15.0622C18.5463 15.4019 18.4979 15.7729 18.5469 16.1375L20.6125 15.8594ZM21.2417 16.6281C21.0444 16.395 20.855 16.1553 20.674 15.9094C20.5562 15.7396 20.599 15.7521 20.6125 15.8594L18.5469 16.1375C18.601 16.5375 18.799 16.8625 18.9635 17.0979C19.1333 17.3427 19.3687 17.6291 19.6292 17.9479L21.2417 16.6281ZM21.9187 17.6864C21.8489 17.4771 21.7462 17.2802 21.6146 17.1031C21.5104 16.9562 21.376 16.7937 21.2417 16.6281L19.6292 17.9479C19.7812 18.1344 19.8635 18.2344 19.9177 18.3114C19.9667 18.3791 19.951 18.3708 19.9344 18.3219L21.9187 17.6864ZM21.8458 19.15C22.0466 18.6871 22.0725 18.167 21.9187 17.6864L19.9344 18.3219L21.8458 19.15ZM21.0667 20.1354C21.2177 19.9844 21.3667 19.8364 21.4854 19.701C21.6104 19.5573 21.7458 19.3791 21.8458 19.1489L19.9344 18.3208C19.9552 18.2729 19.9719 18.2666 19.9167 18.3291C19.8542 18.4 19.7635 18.4916 19.5937 18.6625L21.0667 20.1354ZM20.1354 21.0656L21.0667 20.1354L19.5937 18.6625L18.6625 19.5927L20.1354 21.0656ZM19.15 21.8458C19.3521 21.7554 19.5384 21.6334 19.7021 21.4844C19.8365 21.3666 19.9854 21.2166 20.1354 21.0656L18.6625 19.5927C18.5544 19.7034 18.4433 19.8111 18.3292 19.9156C18.2667 19.9719 18.274 19.9552 18.3219 19.9344L19.15 21.8458ZM17.6875 21.9187C18.1678 22.0722 18.6874 22.0463 19.15 21.8458L18.3219 19.9344L17.6875 21.9187ZM16.6292 21.2416C16.7937 21.376 16.9562 21.5104 17.1031 21.6146C17.2573 21.7239 17.449 21.8427 17.6875 21.9187L18.3219 19.9344C18.3708 19.95 18.3802 19.9656 18.3115 19.9177C18.1876 19.8249 18.0664 19.7287 17.9479 19.6291L16.6292 21.2416ZM15.8604 20.6125C15.7531 20.5969 15.7396 20.5552 15.9094 20.6729C16.0708 20.7854 16.2823 20.9573 16.6281 21.2406L17.9479 19.6291C17.6292 19.3677 17.3427 19.1323 17.0979 18.9625C16.8625 18.7979 16.5375 18.601 16.1375 18.5469L15.8604 20.6125ZM15.8604 20.6125L16.1375 18.5469C15.773 18.4979 15.402 18.5463 15.0622 18.6872C14.7225 18.8281 14.426 19.0564 14.2031 19.3489L15.8604 20.6125ZM15.7604 21.601C15.8052 21.1562 15.8333 20.8833 15.8677 20.6906C15.9042 20.4875 15.925 20.525 15.8594 20.6114L14.2031 19.3479C13.9583 19.6687 13.8687 20.0385 13.8177 20.3208C13.7656 20.6146 13.7302 20.9833 13.6885 21.3937L15.7604 21.601ZM15.4906 22.8291C15.6052 22.6062 15.6573 22.3875 15.6885 22.2C15.7198 22.0229 15.7385 21.8135 15.7604 21.601L13.6885 21.3937C13.6748 21.5484 13.6567 21.7016 13.6344 21.8552C13.6208 21.9385 13.6156 21.9208 13.6396 21.8739L15.4906 22.8291ZM14.4062 23.8114C14.8746 23.6259 15.2598 23.2769 15.4906 22.8291L13.6406 21.875L14.4062 23.8114ZM13.1562 23.9573C13.3698 23.9573 13.5812 23.9573 13.7604 23.9458C13.95 23.9333 14.1729 23.9052 14.4062 23.8114L13.6406 21.875C13.6896 21.8562 13.7062 21.8625 13.6229 21.8687C13.4681 21.8751 13.3132 21.8772 13.1583 21.875L13.1562 23.9573ZM11.8406 23.9573H13.1562L13.1573 21.8739H11.8406V23.9573ZM10.5927 23.8114C10.825 23.9031 11.0479 23.9333 11.2385 23.9458C11.4167 23.9573 11.6281 23.9573 11.8406 23.9573V21.8739C11.6 21.8739 11.4698 21.8739 11.376 21.8677C11.2927 21.8614 11.3094 21.8552 11.3583 21.8739L10.5927 23.8114ZM9.50625 22.8291C9.73757 23.2773 10.1236 23.6263 10.5927 23.8114L11.3583 21.8739L9.50625 22.8291ZM9.2375 21.601C9.25833 21.8135 9.27916 22.0229 9.30833 22.2C9.33958 22.3875 9.39166 22.6062 9.50625 22.8291L11.3604 21.875C11.3844 21.9208 11.3792 21.9385 11.3656 21.8562C11.3436 21.7029 11.3259 21.5491 11.3125 21.3948L9.2375 21.601ZM9.13854 20.6114C9.07291 20.526 9.09375 20.4864 9.1302 20.6906C9.16458 20.8833 9.1927 21.1562 9.2375 21.601L11.3104 21.3937C11.2687 20.9833 11.2333 20.6146 11.1802 20.3208C11.1292 20.0396 11.0396 19.6698 10.7948 19.3489L9.13854 20.6114ZM9.13854 20.6114L10.7948 19.3489C10.5719 19.0564 10.2755 18.8281 9.9357 18.6872C9.59594 18.5463 9.22495 18.4979 8.86041 18.5469L9.13854 20.6114ZM8.36875 21.2416C8.71562 20.9583 8.92708 20.7854 9.08854 20.6739C9.25833 20.5562 9.24583 20.5979 9.13854 20.6114L8.86041 18.5469C8.46041 18.601 8.13541 18.7989 7.9 18.9635C7.6552 19.1323 7.36875 19.3677 7.05 19.6291L8.36875 21.2416ZM7.31041 21.9187C7.5201 21.849 7.71736 21.7463 7.89479 21.6146C8.04062 21.5104 8.20416 21.376 8.36875 21.2416L7.05104 19.6302C6.93222 19.7297 6.81168 19.826 6.6875 19.9187C6.61979 19.9677 6.62916 19.9521 6.67812 19.9354L7.31041 21.9187ZM5.84791 21.8458C6.31053 22.0463 6.83015 22.0722 7.31041 21.9187L6.67604 19.9344L5.84791 21.8458ZM4.86145 21.0666C5.0125 21.2177 5.16145 21.3666 5.29687 21.4854C5.43958 21.6104 5.6177 21.7469 5.84895 21.8469L6.67604 19.9344C6.72395 19.9552 6.73125 19.9719 6.66875 19.9166C6.55466 19.8121 6.4435 19.7044 6.33541 19.5937L4.86145 21.0666ZM3.93125 20.1354L4.8625 21.0666L6.33541 19.5937L5.40416 18.6625L3.93125 20.1354ZM3.15208 19.15C3.25104 19.3791 3.3875 19.5583 3.5125 19.7021C3.63125 19.8364 3.7802 19.9854 3.93125 20.1354L5.40416 18.6625C5.29345 18.5544 5.18577 18.4432 5.08125 18.3291C5.02604 18.2666 5.0427 18.2739 5.06354 18.3219L3.15208 19.15ZM3.07916 17.6875C2.9257 18.1677 2.95161 18.6874 3.15208 19.15L5.06354 18.3219L3.07916 17.6875ZM3.75625 16.6291C3.62689 16.7831 3.50252 16.9412 3.38333 17.1031C3.25159 17.2805 3.14892 17.4778 3.07916 17.6875L5.06354 18.3219C5.04687 18.3708 5.03229 18.3802 5.0802 18.3114C5.13437 18.2354 5.21562 18.1344 5.36875 17.9479L3.75625 16.6291ZM4.38541 15.8594C4.4 15.7521 4.44166 15.7396 4.32395 15.9094C4.2125 16.0708 4.03958 16.2833 3.75625 16.6291L5.36875 17.9479C5.62916 17.6291 5.86562 17.3427 6.03541 17.0979C6.19895 16.8625 6.39687 16.5375 6.45104 16.1375L4.38541 15.8594ZM4.38541 15.8594L6.45104 16.1375C6.5 15.7729 6.45158 15.4019 6.3107 15.0622C6.16982 14.7224 5.9415 14.426 5.64895 14.2031L4.38541 15.8594ZM3.39583 15.7604C3.84166 15.8052 4.11458 15.8333 4.30729 15.8677C4.51041 15.9041 4.47187 15.925 4.38541 15.8594L5.64895 14.2031C5.32812 13.9583 4.95937 13.8687 4.67604 13.8177C4.38333 13.7656 4.01458 13.7291 3.60312 13.6875L3.39583 15.7604ZM2.16875 15.4916C2.39166 15.6062 2.61041 15.6583 2.79791 15.6896C2.975 15.7187 3.18437 15.7406 3.39687 15.7614L3.60312 13.6875C3.44885 13.6744 3.29601 13.657 3.1427 13.6354C3.05937 13.6208 3.07708 13.6156 3.12395 13.6396L2.16875 15.4916ZM1.1875 14.4062C1.37263 14.8753 1.72165 15.2614 2.16979 15.4927L3.125 13.6406L1.1875 14.4062ZM1.04166 13.1583C1.04166 13.3708 1.04166 13.5823 1.05312 13.7614C1.06562 13.951 1.09479 14.1739 1.18854 14.4073L3.125 13.6396C3.14375 13.6885 3.1375 13.7052 3.13229 13.6219C3.12556 13.4674 3.12313 13.3129 3.125 13.1583H1.04166ZM1.04166 11.8416V13.1583H3.125V11.8416H1.04166ZM1.1875 10.5927C1.10869 10.7995 1.06333 11.0175 1.05312 11.2385C1.04062 11.4177 1.04166 11.6291 1.04166 11.8427H3.125C3.125 11.601 3.125 11.4708 3.13229 11.3771C3.1375 11.2937 3.14375 11.3104 3.125 11.3594L1.1875 10.5927ZM2.16979 9.50831C1.72202 9.73912 1.37306 10.1244 1.1875 10.5927L3.125 11.3594L2.16979 9.50831ZM3.39791 9.23748C3.18541 9.25936 2.97604 9.27915 2.79895 9.3104C2.61145 9.34165 2.3927 9.39373 2.16979 9.50831L3.125 11.3594C3.07812 11.3833 3.06145 11.3781 3.14375 11.3646C3.29704 11.3426 3.45092 11.3249 3.6052 11.3114L3.39791 9.23748ZM4.3875 9.13956C4.47395 9.07394 4.5125 9.09477 4.30833 9.13123C4.11562 9.16561 3.8427 9.19373 3.39791 9.23852L3.6052 11.3114C4.01458 11.2698 4.38437 11.2344 4.67812 11.1812C4.96041 11.1302 5.3302 11.0406 5.65104 10.7958L4.3875 9.13956ZM4.3875 9.13956L5.65104 10.7958C5.9434 10.5728 6.17151 10.2763 6.3122 9.93656C6.4529 9.59681 6.50115 9.22588 6.45208 8.86144L4.3875 9.13956ZM3.75729 8.36977C4.04062 8.71561 4.21354 8.92811 4.32604 9.08956C4.44375 9.25936 4.40208 9.24686 4.3875 9.13956L6.45208 8.86144C6.39791 8.46144 6.20104 8.13748 6.03645 7.90102C5.86666 7.65623 5.6302 7.36977 5.36979 7.05102L3.75729 8.36977ZM3.0802 7.3104C3.15625 7.54998 3.27395 7.74061 3.38437 7.89581C3.48854 8.04165 3.62291 8.20519 3.75729 8.36977L5.36979 7.05102C5.27024 6.9322 5.17402 6.81167 5.08125 6.68748C5.03229 6.61977 5.04895 6.62811 5.06458 6.67706L3.0802 7.3104ZM3.15312 5.84894C2.95291 6.31125 2.927 6.83045 3.0802 7.3104L5.06458 6.67706L3.15312 5.84894ZM3.93229 4.86248C3.78125 5.01352 3.63229 5.16144 3.51354 5.29686C3.36486 5.46059 3.24319 5.64695 3.15312 5.84894L5.06458 6.67706C5.04375 6.72498 5.02708 6.73227 5.08229 6.66873C5.14479 6.5979 5.23541 6.50623 5.4052 6.3354L3.93229 4.86248ZM4.86354 3.93227L3.93229 4.86248L5.4052 6.3354L6.3375 5.40519L4.86354 3.93227ZM5.84895 3.15206C5.64689 3.24246 5.46053 3.36447 5.29687 3.51352C5.14798 3.64843 5.00346 3.78808 4.86354 3.93227L6.3375 5.40519C6.50729 5.23436 6.59895 5.14373 6.66979 5.08227C6.73229 5.02602 6.725 5.04269 6.67708 5.06352L5.84895 3.15206ZM7.31145 3.07915C6.83119 2.92568 6.31157 2.95159 5.84895 3.15206L6.67708 5.06352L7.31145 3.07915ZM8.36875 3.75623C8.20416 3.62186 8.0427 3.48852 7.89583 3.38436C7.71847 3.25225 7.52121 3.14922 7.31145 3.07915L6.67708 5.06352C6.62812 5.0479 6.61875 5.03227 6.6875 5.08019C6.76354 5.1354 6.86458 5.21665 7.05104 5.36977L8.36875 3.75623ZM9.13958 4.38644C9.24687 4.40102 9.25937 4.44269 9.08958 4.32498C8.84366 4.1439 8.60394 3.95456 8.37083 3.75727L7.05104 5.36977C7.36979 5.63019 7.6552 5.86561 7.9 6.03644C8.13541 6.19998 8.46041 6.39686 8.86041 6.45102L9.13958 4.38644ZM9.13958 4.38644L8.86145 6.45102C9.22599 6.49998 9.59698 6.45156 9.93674 6.31068C10.2765 6.1698 10.5729 5.94149 10.7958 5.64894L9.13958 4.38644ZM9.23854 3.39686C9.19375 3.84269 9.16562 4.11561 9.13125 4.30831C9.09479 4.51144 9.07395 4.4729 9.13958 4.38644L10.7958 5.64894C11.0406 5.32811 11.1302 4.95936 11.1812 4.67706C11.2333 4.38436 11.2708 4.01456 11.3115 3.60415L9.23854 3.39686ZM9.50729 2.16977C9.40832 2.36765 9.34152 2.58004 9.30937 2.79894C9.2802 2.97602 9.25937 3.1854 9.23854 3.3979L11.3115 3.60415C11.325 3.44992 11.3424 3.2971 11.3635 3.14373C11.3781 3.0604 11.3833 3.07915 11.3594 3.12498L9.50729 2.16977ZM10.5937 1.18748C10.1246 1.37262 9.73861 1.72163 9.50729 2.16977L11.3594 3.12498L10.5937 1.18748ZM11.8417 1.04165C11.6292 1.04165 11.4177 1.04165 11.2385 1.05311C11.0175 1.06331 10.7995 1.10867 10.5927 1.18748L11.3604 3.12498C11.3115 3.14373 11.2948 3.13748 11.3781 3.13227C11.4719 3.12602 11.6021 3.12498 11.8427 3.12498L11.8417 1.04165ZM13.1583 1.04165H11.8417V3.12498H13.1583V1.04165ZM14.4062 1.18748C14.1995 1.10867 13.9815 1.06331 13.7604 1.05311C13.5833 1.04061 13.3719 1.04165 13.1594 1.04165V3.12498C13.4 3.12498 13.5302 3.12498 13.624 3.13227C13.7073 3.13748 13.6896 3.14373 13.6406 3.12498L14.4062 1.18748ZM15.4927 2.16977C15.2614 1.72163 14.8754 1.37262 14.4062 1.18748L13.6406 3.12498L15.4927 2.16977ZM15.625 12.5C15.625 13.3288 15.2958 14.1236 14.7097 14.7097C14.1237 15.2957 13.3288 15.625 12.5 15.625V17.7083C13.8813 17.7083 15.2061 17.1596 16.1828 16.1828C17.1596 15.2061 17.7083 13.8813 17.7083 12.5H15.625ZM12.5 9.37498C13.3288 9.37498 14.1237 9.70422 14.7097 10.2903C15.2958 10.8763 15.625 11.6712 15.625 12.5H17.7083C17.7083 11.1186 17.1596 9.79388 16.1828 8.81713C15.2061 7.84038 13.8813 7.29165 12.5 7.29165V9.37498ZM9.375 12.5C9.375 11.6712 9.70424 10.8763 10.2903 10.2903C10.8763 9.70422 11.6712 9.37498 12.5 9.37498V7.29165C11.1187 7.29165 9.7939 7.84038 8.81715 8.81713C7.8404 9.79388 7.29166 11.1186 7.29166 12.5H9.375ZM12.5 15.625C11.6712 15.625 10.8763 15.2957 10.2903 14.7097C9.70424 14.1236 9.375 13.3288 9.375 12.5H7.29166C7.29166 13.8813 7.8404 15.2061 8.81715 16.1828C9.7939 17.1596 11.1187 17.7083 12.5 17.7083V15.625Z" fill="#3A2D28"/>
</svg>
