<svg width="16" height="16" viewBox="0 0 16 16" fill="none" xmlns="http://www.w3.org/2000/svg">
<path fill-rule="evenodd" clip-rule="evenodd" d="M5.06531 2.99133C5.24331 2.118 6.02065 1.5 6.91065 1.5H9.08931C9.97931 1.5 10.756 2.118 10.9346 2.99133C10.9543 3.0875 11.0058 3.17425 11.0808 3.23761C11.1558 3.30098 11.2499 3.33728 11.348 3.34067H11.37C12.3053 3.382 13.024 3.49667 13.624 3.89067C14.002 4.13867 14.3273 4.45733 14.5806 4.83C14.896 5.29267 15.0346 5.82467 15.1013 6.46733C15.1666 7.096 15.1666 7.88333 15.1666 8.88067V8.93733C15.1666 9.93467 15.1666 10.7227 15.1013 11.3507C15.0346 11.9933 14.896 12.5253 14.5806 12.9887C14.3259 13.361 14.001 13.6801 13.624 13.928C13.1553 14.2353 12.6173 14.3713 11.9653 14.436C11.3266 14.5 10.526 14.5 9.50865 14.5H6.49131C5.47398 14.5 4.67331 14.5 4.03465 14.436C3.38265 14.3713 2.84465 14.236 2.37598 13.928C1.99894 13.6799 1.67397 13.3606 1.41931 12.988C1.10398 12.5253 0.965313 11.9933 0.898646 11.3507C0.833313 10.7227 0.833313 9.93467 0.833313 8.93733V8.88067C0.833313 7.88333 0.833313 7.096 0.898646 6.46733C0.965313 5.82467 1.10398 5.29267 1.41931 4.83C1.67397 4.45738 1.99894 4.13807 2.37598 3.89C2.97598 3.49667 3.69465 3.382 4.62998 3.34133L4.64131 3.34067H4.65198C4.75008 3.33728 4.8442 3.30098 4.91917 3.23761C4.99414 3.17425 5.04562 3.0875 5.06531 2.99133ZM6.91065 2.5C6.48398 2.5 6.12598 2.79533 6.04531 3.19067C5.91531 3.83067 5.34731 4.33467 4.66398 4.34067C3.76531 4.38067 3.28398 4.49067 2.92398 4.72667C2.65694 4.90262 2.42667 5.12882 2.24598 5.39267C2.06198 5.66267 1.95131 6.00867 1.89265 6.57067C1.83398 7.14133 1.83331 7.87733 1.83331 8.90933C1.83331 9.94133 1.83331 10.6767 1.89331 11.2473C1.95131 11.8093 2.06198 12.1553 2.24665 12.426C2.42531 12.6887 2.65531 12.9153 2.92465 13.092C3.20265 13.274 3.55865 13.384 4.13398 13.4413C4.71665 13.4993 5.46731 13.5 6.51865 13.5H9.48131C10.532 13.5 11.2826 13.5 11.866 13.4413C12.4413 13.384 12.7973 13.2747 13.0753 13.092C13.3446 12.9153 13.5753 12.6887 13.754 12.4253C13.938 12.1553 14.0486 11.8093 14.1073 11.2473C14.166 10.6767 14.1666 9.94067 14.1666 8.90933C14.1666 7.878 14.1666 7.14133 14.1066 6.57067C14.0486 6.00867 13.938 5.66267 13.7533 5.39267C13.5727 5.12858 13.3424 4.90215 13.0753 4.726C12.7166 4.49067 12.2353 4.38067 11.3353 4.34067C10.6526 4.334 10.0846 3.83133 9.95465 3.19067C9.91198 2.99351 9.80258 2.81713 9.64493 2.69129C9.48727 2.56546 9.29102 2.49789 9.08931 2.5H6.91065ZM7.99998 7.16667C7.60215 7.16667 7.22062 7.3247 6.93932 7.60601C6.65801 7.88731 6.49998 8.26884 6.49998 8.66667C6.49998 9.06449 6.65801 9.44602 6.93932 9.72733C7.22062 10.0086 7.60215 10.1667 7.99998 10.1667C8.3978 10.1667 8.77933 10.0086 9.06064 9.72733C9.34194 9.44602 9.49998 9.06449 9.49998 8.66667C9.49998 8.26884 9.34194 7.88731 9.06064 7.60601C8.77933 7.3247 8.3978 7.16667 7.99998 7.16667ZM5.49998 8.66667C5.49998 8.00363 5.76337 7.36774 6.23221 6.8989C6.70105 6.43006 7.33694 6.16667 7.99998 6.16667C8.66302 6.16667 9.29891 6.43006 9.76775 6.8989C10.2366 7.36774 10.5 8.00363 10.5 8.66667C10.5 9.32971 10.2366 9.96559 9.76775 10.4344C9.29891 10.9033 8.66302 11.1667 7.99998 11.1667C7.33694 11.1667 6.70105 10.9033 6.23221 10.4344C5.76337 9.96559 5.49998 9.32971 5.49998 8.66667ZM11.5 6.66667C11.5 6.53406 11.5527 6.40688 11.6464 6.31311C11.7402 6.21935 11.8674 6.16667 12 6.16667H12.6666C12.7993 6.16667 12.9264 6.21935 13.0202 6.31311C13.114 6.40688 13.1666 6.53406 13.1666 6.66667C13.1666 6.79928 13.114 6.92645 13.0202 7.02022C12.9264 7.11399 12.7993 7.16667 12.6666 7.16667H12C11.8674 7.16667 11.7402 7.11399 11.6464 7.02022C11.5527 6.92645 11.5 6.79928 11.5 6.66667Z" fill="#84776E"/>
</svg>
