<svg width="25" height="25" viewBox="0 0 25 25" fill="none" xmlns="http://www.w3.org/2000/svg">
<g clip-path="url(#clip0_80_82)">
<path fill-rule="evenodd" clip-rule="evenodd" d="M13.4375 9.24557e-06C14.0672 9.24557e-06 14.6344 -0.00155325 15.1094 0.0359467C15.5359 0.0718842 15.9844 0.145322 16.4312 0.334384L16.6219 0.423447L16.6234 0.425009C17.3578 0.800009 17.9562 1.39845 18.3266 2.12813L18.3281 2.1297C18.5859 2.63751 18.6766 3.1547 18.7156 3.6422C18.7531 4.11095 18.7516 4.67813 18.7516 5.31407V6.25157H19.6891C20.3187 6.25157 20.8859 6.25001 21.3609 6.28751C21.8484 6.32813 22.3656 6.4172 22.8734 6.67501L22.875 6.67657C23.6094 7.05157 24.2078 7.65001 24.5781 8.3797L24.5797 8.38126C24.8375 8.88907 24.9281 9.40626 24.9672 9.89376C25.0062 10.3625 25.0047 10.9297 25.0047 11.5656V13.4406C25.0047 14.0703 25.0047 14.6375 24.9672 15.1125C24.9411 15.6376 24.8093 16.1521 24.5797 16.625C24.2055 17.3579 23.6095 17.9556 22.8766 18.3297L22.8734 18.3313C22.4005 18.5609 21.886 18.6927 21.3609 18.7188C21.1255 18.7375 20.8677 18.7479 20.5875 18.75L19.6969 18.7563H18.7594V19.6938C18.7594 20.3234 18.7594 20.8906 18.7219 21.3656C18.6958 21.8907 18.564 22.4052 18.3344 22.8781H18.3328C17.9587 23.6111 17.3626 24.2071 16.6297 24.5813L16.6281 24.5844C16.1552 24.814 15.6407 24.9458 15.1156 24.9719C14.8802 24.9896 14.6224 25 14.3422 25.0031L13.45 25.0078H11.575C10.9453 25.0078 10.3781 25.0094 9.90312 24.9719C9.37802 24.9458 8.86358 24.814 8.39062 24.5844L8.38906 24.5828C7.65613 24.2087 7.06008 23.6126 6.68594 22.8797L6.68437 22.8781C6.45474 22.4052 6.32294 21.8907 6.29688 21.3656C6.27848 21.1082 6.26805 20.8503 6.26563 20.5922L6.26094 19.7V18.7625H5.32344C4.69375 18.7625 4.12656 18.7625 3.65156 18.725C3.12646 18.6989 2.61201 18.5671 2.13906 18.3375C1.40613 17.9634 0.808519 17.3673 0.434375 16.6344L0.432813 16.6313C0.203176 16.1583 0.0713772 15.6439 0.0453125 15.1188C0.0269138 14.8613 0.0164922 14.6034 0.0140625 14.3453L0.0078125 13.4547V11.5797C0.0078125 10.9484 0.0078125 10.3813 0.0453125 9.90782C0.084375 9.41876 0.175 8.90001 0.434375 8.3922C0.808519 7.65927 1.40457 7.06321 2.1375 6.68907C2.64531 6.43126 3.1625 6.34063 3.65 6.30157C4.11875 6.26407 4.68594 6.26563 5.32187 6.26563H6.25937V5.32813C6.25937 4.69845 6.25781 4.13126 6.29531 3.65626C6.33437 3.16876 6.42656 2.65001 6.68437 2.14063C7.05937 1.40626 7.65781 0.809384 8.3875 0.437509C8.89531 0.179697 9.41406 0.0890717 9.90156 0.0500092C10.3703 0.0125092 10.9375 0.0140717 11.5734 0.0140717H13.4484L13.4375 9.24557e-06ZM11.5625 1.56251C10.25 1.56251 9.59375 1.56251 9.09375 1.8172C8.65236 2.04197 8.29352 2.4008 8.06875 2.8422C7.81406 3.34376 7.81406 4.00001 7.81406 5.31095V7.42032C7.81406 7.52392 7.77291 7.62328 7.69965 7.69653C7.62639 7.76979 7.52704 7.81095 7.42344 7.81095H5.31406C4.00156 7.81095 3.34531 7.81095 2.84531 8.06563C2.40392 8.2904 2.04508 8.64924 1.82031 9.09063C1.56562 9.5922 1.56562 10.2484 1.56562 11.5594V13.4344C1.56562 14.7469 1.56562 15.4031 1.82031 15.9031C2.04531 16.3438 2.40469 16.7031 2.84531 16.9281C3.34687 17.1828 4.00312 17.1828 5.31406 17.1828H7.42344C7.52704 17.1828 7.62639 17.224 7.69965 17.2972C7.77291 17.3705 7.81406 17.4698 7.81406 17.5734V19.6828C7.81406 20.9953 7.81406 21.6516 8.06875 22.1516C8.29375 22.5922 8.65313 22.9516 9.09375 23.1766C9.59531 23.4313 10.2516 23.4313 11.5625 23.4313H13.4375C14.75 23.4313 15.4063 23.4313 15.9063 23.1766C16.3469 22.9516 16.7063 22.5922 16.9313 22.1516C17.1859 21.65 17.1859 20.9938 17.1859 19.6828V17.5734C17.1859 17.4698 17.2271 17.3705 17.3003 17.2972C17.3736 17.224 17.473 17.1828 17.5766 17.1828H19.6859C20.9984 17.1828 21.6547 17.1828 22.1547 16.9281C22.5953 16.7031 22.9547 16.3438 23.1797 15.9031C23.4344 15.4016 23.4344 14.7453 23.4344 13.4344V11.5594C23.4344 10.2469 23.4344 9.59063 23.1797 9.09063C22.9549 8.64924 22.5961 8.2904 22.1547 8.06563C21.6531 7.81095 20.9969 7.81095 19.6859 7.81095H17.5766C17.473 7.81095 17.3736 7.76979 17.3003 7.69653C17.2271 7.62328 17.1859 7.52392 17.1859 7.42032V5.31095C17.1859 3.99845 17.1859 3.3422 16.9313 2.8422C16.7065 2.4008 16.3476 2.04197 15.9063 1.8172C15.4047 1.56251 14.7484 1.56251 13.4375 1.56251H11.5625Z" fill="#2D2926"/>
<path fill-rule="evenodd" clip-rule="evenodd" d="M17.4107 17.4107V21.503C17.4107 22.1542 17.152 22.7787 16.6915 23.2392C16.231 23.6996 15.6065 23.9583 14.9553 23.9583H10.0446C9.3934 23.9583 8.76887 23.6996 8.3084 23.2392C7.84793 22.7787 7.58924 22.1542 7.58924 21.503V17.4107H3.49698C2.84578 17.4107 2.22125 17.152 1.76078 16.6915C1.30031 16.2311 1.04163 15.6065 1.04163 14.9553V10.0446C1.04163 9.39343 1.30031 8.7689 1.76078 8.30843C2.22125 7.84796 2.84578 7.58928 3.49698 7.58928H7.58924V3.49701C7.58924 2.84581 7.84793 2.22128 8.3084 1.76081C8.76887 1.30035 9.3934 1.04166 10.0446 1.04166H14.9553C15.6065 1.04166 16.231 1.30035 16.6915 1.76081C17.152 2.22128 17.4107 2.84581 17.4107 3.49701V7.58928H21.5029C22.1541 7.58928 22.7787 7.84796 23.2391 8.30843C23.6996 8.7689 23.9583 9.39343 23.9583 10.0446V14.9553C23.9583 15.6065 23.6996 16.2311 23.2391 16.6915C22.7787 17.152 22.1541 17.4107 21.5029 17.4107H17.4107Z" fill="#2D2926"/>
<path d="M14.2969 17.1875C14.6219 17.1875 14.8063 17.561 14.6078 17.8188L12.8109 20.1625C12.7745 20.2105 12.7275 20.2493 12.6735 20.2761C12.6196 20.3028 12.5602 20.3167 12.5 20.3167C12.4398 20.3167 12.3804 20.3028 12.3265 20.2761C12.2725 20.2493 12.2255 20.2105 12.1891 20.1625L10.3922 17.8188C10.3476 17.7607 10.3201 17.6913 10.3128 17.6185C10.3056 17.5456 10.3189 17.4721 10.3513 17.4064C10.3836 17.3407 10.4337 17.2854 10.4959 17.2467C10.5581 17.208 10.6299 17.1875 10.7031 17.1875H14.2969ZM7.18751 10.3907C7.24556 10.346 7.31496 10.3185 7.38784 10.3113C7.46072 10.3041 7.53417 10.3174 7.59987 10.3497C7.66557 10.3821 7.72089 10.4322 7.75958 10.4944C7.79826 10.5566 7.81876 10.6284 7.81876 10.7016V14.2953C7.81876 14.3686 7.79826 14.4404 7.75958 14.5025C7.72089 14.5647 7.66557 14.6148 7.59987 14.6472C7.53417 14.6796 7.46072 14.6929 7.38784 14.6857C7.31496 14.6784 7.24556 14.6509 7.18751 14.6063L4.84376 12.8094C4.79583 12.773 4.75698 12.7259 4.73024 12.672C4.70349 12.6181 4.68958 12.5587 4.68958 12.4985C4.68958 12.4383 4.70349 12.3789 4.73024 12.3249C4.75698 12.271 4.79583 12.224 4.84376 12.1875L7.18751 10.3907ZM17.1875 10.7032C17.1875 10.3782 17.5609 10.1938 17.8188 10.3922L20.1625 12.1891C20.2104 12.2255 20.2493 12.2726 20.276 12.3265C20.3028 12.3804 20.3167 12.4398 20.3167 12.5C20.3167 12.5602 20.3028 12.6196 20.276 12.6736C20.2493 12.7275 20.2104 12.7745 20.1625 12.811L17.8188 14.6078C17.7607 14.6525 17.6913 14.68 17.6184 14.6872C17.5455 14.6944 17.4721 14.6811 17.4064 14.6488C17.3407 14.6164 17.2854 14.5663 17.2467 14.5041C17.208 14.4419 17.1875 14.3701 17.1875 14.2969V10.7032ZM12.1875 4.84379C12.2239 4.79586 12.271 4.75701 12.3249 4.73027C12.3788 4.70352 12.4382 4.68961 12.4984 4.68961C12.5586 4.68961 12.618 4.70352 12.672 4.73027C12.7259 4.75701 12.7729 4.79586 12.8094 4.84379L14.6063 7.18754C14.6509 7.24559 14.6784 7.31499 14.6856 7.38787C14.6929 7.46075 14.6795 7.5342 14.6472 7.5999C14.6148 7.6656 14.5647 7.72092 14.5025 7.75961C14.4403 7.79829 14.3686 7.81879 14.2953 7.81879H10.7016C10.6283 7.81879 10.5566 7.79829 10.4944 7.75961C10.4322 7.72092 10.3821 7.6656 10.3497 7.5999C10.3173 7.5342 10.304 7.46075 10.3113 7.38787C10.3185 7.31499 10.346 7.24559 10.3906 7.18754L12.1875 4.84379Z" fill="#FFFBF5"/>
</g>
<defs>
<clipPath id="clip0_80_82">
<rect width="25" height="25" fill="white"/>
</clipPath>
</defs>
</svg>
