<svg width="25" height="25" viewBox="0 0 25 25" fill="none" xmlns="http://www.w3.org/2000/svg">
<path d="M7.03962 17.387C4.974 15.7661 3.64587 13.2464 3.64587 10.4167C3.64587 5.52656 7.60994 1.5625 12.5 1.5625C17.3901 1.5625 21.3542 5.52656 21.3542 10.4167C21.3542 13.2464 20.0266 15.7661 17.9605 17.387C17.808 17.9956 17.6392 18.6 17.4542 19.1995C17.2948 19.7193 16.8631 20.0969 16.3219 20.1536C15.5964 20.2292 14.373 20.3125 12.5 20.3125C10.6271 20.3125 9.40369 20.2292 8.67817 20.1536C8.13702 20.0969 7.70525 19.7193 7.54587 19.199C7.3964 18.713 7.20733 18.0635 7.03962 17.387Z" stroke="#2D2926" stroke-width="1.5" stroke-linecap="round" stroke-linejoin="round"/>
<path d="M8.58752 20.1406C8.69325 20.8229 8.80315 21.4437 8.89482 21.9344C9.02502 22.6245 9.51565 23.1786 10.2099 23.2833C10.7547 23.3661 11.5115 23.4375 12.5 23.4375C13.4401 23.4375 14.2125 23.3729 14.8005 23.2958C15.6255 23.1875 16.2037 22.501 16.2933 21.6734L16.4604 20.1318M17.7084 9.89583C17.7084 7.01927 15.3766 4.6875 12.5 4.6875" stroke="#2D2926" stroke-width="1.5" stroke-linecap="round" stroke-linejoin="round"/>
</svg>
