<svg width="25" height="25" viewBox="0 0 25 25" fill="none" xmlns="http://www.w3.org/2000/svg">
<path fill-rule="evenodd" clip-rule="evenodd" d="M12.5 22.9167C18.2532 22.9167 22.9167 18.2531 22.9167 12.5C22.9167 6.74689 18.2532 2.08334 12.5 2.08334C6.74692 2.08334 2.08337 6.74689 2.08337 12.5C2.08337 18.2531 6.74692 22.9167 12.5 22.9167ZM16.599 5.82501C16.7427 5.88357 16.8657 5.9836 16.9524 6.11235C17.039 6.2411 17.0853 6.39274 17.0855 6.54793V9.37605C17.0855 9.58325 17.0031 9.78197 16.8566 9.92848C16.7101 10.075 16.5114 10.1573 16.3042 10.1573H13.5417C13.3879 10.1574 13.2376 10.1121 13.1094 10.0271C12.9813 9.94211 12.8811 9.82119 12.8214 9.6795C12.7616 9.53781 12.7451 9.38164 12.7737 9.23057C12.8023 9.07949 12.8749 8.94023 12.9823 8.83022L13.7761 8.01772C13.0094 7.78217 12.1925 7.76347 11.4159 7.96369C10.6393 8.16392 9.93328 8.57524 9.37608 9.15209C7.63858 10.9302 7.63858 13.8219 9.37608 15.6C9.78118 16.0193 10.2665 16.3528 10.8032 16.5805C11.34 16.8083 11.917 16.9256 12.5 16.9256C13.0831 16.9256 13.6601 16.8083 14.1968 16.5805C14.7335 16.3528 15.2189 16.0193 15.624 15.6C16.3079 14.8983 16.7489 13.9958 16.8823 13.025C16.9428 12.5896 17.2886 12.2229 17.7282 12.2229C18.1511 12.2229 18.5011 12.5615 18.4605 12.9823C18.3279 14.379 17.7214 15.6884 16.7417 16.6927C16.1911 17.261 15.5319 17.7128 14.8032 18.0214C14.0746 18.33 13.2913 18.489 12.5 18.489C11.7087 18.489 10.9255 18.33 10.1969 18.0214C9.46823 17.7128 8.80901 17.261 8.25837 16.6927C5.92817 14.3073 5.92817 10.4458 8.25837 8.06043C9.10858 7.18287 10.21 6.5906 11.4109 6.36524C12.6118 6.13987 13.8531 6.2925 14.9636 6.80209L15.7448 6.00209C15.8535 5.89098 15.9927 5.81478 16.1449 5.78323C16.2971 5.75169 16.4552 5.76623 16.599 5.82501Z" fill="#2D2926"/>
</svg>
