<svg width="68" height="37" viewBox="0 0 68 37" fill="none" xmlns="http://www.w3.org/2000/svg">
<path d="M44.7671 31.8728C44.3896 31.5175 44.1231 31.0735 43.9233 30.6738L43.9011 30.696C43.0129 31.6508 41.7029 32.1393 40.1264 32.0282C38.3057 31.9394 37.1067 30.807 36.6626 29.386C36.2407 28.0093 36.4627 26.233 37.5951 24.9673C38.3501 24.1236 39.5713 23.7017 40.7703 23.7239C41.9471 23.7905 43.1462 24.279 43.8567 25.145C44.5894 26.0553 44.8337 27.0989 45.1001 28.0537C45.3444 29.0085 45.6108 29.9633 46.1659 30.5406C46.5434 30.9624 46.499 31.4953 46.0771 31.8284C45.6552 32.2725 45.1445 32.2947 44.7671 31.8728ZM39.0384 26.2552C38.3057 27.0767 38.128 28.0315 38.4833 28.8531C38.8386 29.6524 39.5713 30.0299 40.3929 30.0965C41.1922 30.1853 42.0804 29.8967 42.5689 29.3638C42.9685 28.9419 43.2128 28.3646 43.0796 27.7429C42.9241 26.8325 42.2358 26.122 41.4142 25.7667C40.5927 25.4558 39.7267 25.5447 39.0384 26.2552ZM49.0762 31.8062C48.3657 31.3843 48.1214 30.474 48.0104 29.8744C47.8106 28.7198 47.7218 27.3654 47.7218 26.1442C47.7218 24.9007 47.744 23.6795 47.8106 22.7691L47.8994 21.6811L47.9438 21.2371C48.0326 20.7042 48.4545 20.2601 49.0318 20.3489C49.5203 20.4377 49.9644 20.8818 49.8756 21.4369L49.8534 21.8144L49.7423 22.8135C49.6535 23.6573 49.6091 24.7453 49.6091 25.9443C49.6091 27.1211 49.6979 28.3424 49.8978 29.386C50.0088 30.0077 50.0088 30.1187 50.5195 30.0521C51.1634 29.8744 51.4743 30.1409 51.6297 30.6516C51.8295 31.1401 51.7629 31.6286 51.119 31.8284C50.5639 32.0504 49.6313 32.1837 49.0762 31.8062ZM54.5839 31.8062C53.8733 31.3843 53.6291 30.474 53.5181 29.8744C53.3182 28.7198 53.2294 27.3654 53.2294 26.1442C53.2294 24.9007 53.2516 23.6795 53.3182 22.7691L53.4071 21.6811L53.4515 21.2371C53.5403 20.7042 53.9622 20.2601 54.5395 20.3489C55.0279 20.4377 55.472 20.8818 55.3832 21.4369L55.361 21.8144L55.25 22.8135C55.1612 23.6573 55.1168 24.7453 55.1168 25.9443C55.1168 27.1211 55.2056 28.3424 55.4054 29.386C55.5164 30.0077 55.5164 30.1187 56.0271 30.0521C56.6711 29.8744 56.9819 30.1409 57.1373 30.6516C57.3372 31.1401 57.2706 31.6286 56.6266 31.8284C56.0715 32.0504 55.139 32.1837 54.5839 31.8062ZM62.6006 35.9362C61.4238 35.9362 60.0693 35.4255 59.1812 34.3375C58.7371 33.849 59.0035 33.3827 59.381 33.0718C59.7585 32.7388 60.2914 32.5833 60.6466 33.0718C61.1573 33.6269 61.8456 33.9156 62.4896 33.9378C63.1335 33.96 63.7552 33.7824 64.0438 33.5603C64.71 33.1384 64.9986 32.2503 65.1985 31.3399C64.4657 32.006 63.5332 32.2503 62.7338 32.1837C61.446 32.1171 60.2247 31.4509 59.4698 30.3407C58.7593 29.2971 58.5816 27.3432 58.8925 24.5011C59.0035 23.9682 59.4698 23.6795 60.0027 23.7905C60.4912 23.8793 60.9353 24.168 60.8465 24.7231C60.6688 26.2774 60.6688 27.2766 60.7576 28.0315C60.8021 28.3868 60.8687 28.6754 60.9131 28.8753C60.9797 29.0307 61.0463 29.1639 61.0907 29.2305C61.5126 29.8744 62.1565 30.2297 62.8004 30.2297C63.9994 30.2297 64.6434 29.6968 64.9542 28.8753C65.2873 28.0315 65.2651 26.9657 65.1763 25.9443C65.1096 25.3892 65.1096 24.8785 65.1096 24.6121C65.0874 24.057 65.5537 23.8127 66.02 23.7905C66.5307 23.7239 66.997 23.946 67.0414 24.5011C67.0636 24.5677 67.0636 24.6787 67.0636 24.7675C67.0636 24.8563 67.0858 24.9451 67.0858 25.0562C67.0858 25.3004 67.108 25.5669 67.1302 25.8555C67.1968 27.0767 67.2856 28.5644 67.1968 30.0299C67.108 31.5175 66.7972 33.0052 66.1088 34.071C65.4205 35.2034 64.3325 35.9362 62.6006 35.9362Z" fill="#FFB085"/>
<path d="M4.16327 19.0816L24.9796 2.42859L42.6735 16.5837M45.7959 19.0816L42.6735 16.5837M42.6735 7.63267V16.5837" stroke="#8E735B" stroke-width="2.08163" stroke-linecap="round" stroke-linejoin="round"/>
<path d="M17.6939 21.5102C17.6939 22.2766 17.0726 22.898 16.3062 22.898C15.5397 22.898 14.9184 22.2766 14.9184 21.5102C14.9184 20.7438 15.5397 20.1225 16.3062 20.1225C17.0726 20.1225 17.6939 20.7438 17.6939 21.5102Z" fill="#8E735B"/>
<path d="M34.6939 21.5102C34.6939 22.2766 34.0726 22.898 33.3062 22.898C32.5397 22.898 31.9184 22.2766 31.9184 21.5102C31.9184 20.7438 32.5397 20.1225 33.3062 20.1225C34.0726 20.1225 34.6939 20.7438 34.6939 21.5102Z" fill="#8E735B"/>
<ellipse cx="11.3186" cy="18.9445" rx="1.38776" ry="3.81633" transform="rotate(27.479 11.3186 18.9445)" fill="#8E735B"/>
<ellipse cx="1.38776" cy="3.81633" rx="1.38776" ry="3.81633" transform="matrix(-0.88718 0.461424 0.461424 0.88718 37.8501 14.9184)" fill="#8E735B"/>
<path d="M24.9218 25.1631C24.9218 25.1631 23.2003 32.7764 18.4285 30.2978C16.1519 28.9588 17.0282 25.8472 17.0713 25.8845" stroke="#8E735B" stroke-width="1.73469" stroke-linecap="round" stroke-linejoin="bevel"/>
<path d="M24.8057 25.1631C24.8057 25.1631 26.5272 32.7764 31.299 30.2978C33.5756 28.9588 32.6993 25.8472 32.6562 25.8845" stroke="#8E735B" stroke-width="1.73469" stroke-linecap="round" stroke-linejoin="bevel"/>
<path d="M25.7305 25.7544C25.3145 26.3184 24.4713 26.3184 24.0553 25.7544L23.4277 24.9036C22.9208 24.2164 23.4114 23.2449 24.2652 23.2449H25.5205C26.3744 23.2449 26.865 24.2164 26.3581 24.9036L25.7305 25.7544Z" fill="#8E735B"/>
</svg>
