<?xml version="1.0" encoding="UTF-8"?>
<!DOCTYPE svg PUBLIC "-//W3C//DTD SVG 1.1//EN" "http://www.w3.org/Graphics/SVG/1.1/DTD/svg11.dtd">
<svg xmlns="http://www.w3.org/2000/svg" style="background: transparent; background-color: transparent; color-scheme: light;" xmlns:xlink="http://www.w3.org/1999/xlink" version="1.1" width="705px" height="221px" viewBox="0 0 705 221"><defs/><g><g data-cell-id="0"><g data-cell-id="1"><g data-cell-id="qbfOKORKpfoM7B88Iemy-3"><g transform="translate(0.5,0.5)"><path d="M 80 110 L 130.76 110" fill="none" stroke="none" pointer-events="stroke"/><path d="M 124.88 113.5 L 131.88 110 L 124.88 106.5" fill="none" stroke="none" pointer-events="all"/><path d="M 80 110 C 92.51 109.66 97.54 111.02 130.76 110 M 80 110 C 91.22 110.28 103.94 108.65 130.76 110" fill="none" stroke="#000000" stroke-linejoin="round" stroke-linecap="round" stroke-miterlimit="10" stroke-dasharray="3 3" pointer-events="stroke" style="stroke: rgb(0, 0, 0);"/><path d="M 124.88 113.5 C 127.1 112.63 126.46 112.45 131.88 110 M 124.88 113.5 C 126.23 112.69 128.19 111.23 131.88 110 M 131.88 110 C 130.58 108.58 127.41 108.73 124.88 106.5 M 131.88 110 C 129.54 109.17 127.45 107.62 124.88 106.5" fill="none" stroke="#000000" stroke-linejoin="round" stroke-linecap="round" stroke-miterlimit="10" pointer-events="all" style="stroke: rgb(0, 0, 0);"/></g></g><g data-cell-id="qbfOKORKpfoM7B88Iemy-1"><g transform="translate(0.5,0.5)"><ellipse cx="40" cy="110" rx="40" ry="40" fill="none" stroke="none" pointer-events="all"/><path d="M 71.69 86.02 C 76.57 91.2 80.31 98.1 80.74 105.43 C 81.17 112.76 77.74 123.71 74.27 129.99 C 70.8 136.26 66.3 139.45 59.93 143.07 C 53.55 146.68 43.05 151.98 36.02 151.68 C 28.98 151.39 23.61 145.99 17.74 141.28 C 11.87 136.56 3.91 130.25 0.8 123.39 C -2.31 116.53 -2.97 107.11 -0.94 100.1 C 1.1 93.1 7.96 86.06 13.01 81.37 C 18.06 76.68 22.86 73.41 29.36 71.96 C 35.86 70.51 44.1 69.15 52 72.67 C 59.9 76.2 72.54 87.75 76.75 93.12 C 80.96 98.49 78 104.56 77.26 104.88 M 8.56 88.37 C 12.09 82.49 16.93 74.05 23.06 70.69 C 29.19 67.33 38.11 65.97 45.34 68.21 C 52.57 70.44 60.58 78.84 66.44 84.12 C 72.29 89.4 78.29 93.24 80.46 99.88 C 82.62 106.52 82.48 116.85 79.42 123.97 C 76.36 131.1 67.89 137.99 62.11 142.61 C 56.33 147.24 51.86 151.58 44.75 151.74 C 37.63 151.89 26.09 146.99 19.41 143.54 C 12.74 140.1 8.4 136.92 4.72 131.06 C 1.04 125.19 -2.73 116.07 -2.64 108.35 C -2.55 100.63 3.55 88.22 5.26 84.71 C 6.97 81.21 6.9 86.8 7.62 87.31" fill="none" stroke="#000000" stroke-linejoin="round" stroke-linecap="round" stroke-miterlimit="10" pointer-events="all" style="stroke: rgb(0, 0, 0);"/></g><g><g><switch><foreignObject style="overflow: visible; text-align: left;" pointer-events="none" width="100%" height="100%" requiredFeatures="http://www.w3.org/TR/SVG11/feature#Extensibility"><div xmlns="http://www.w3.org/1999/xhtml" style="display: flex; align-items: unsafe center; justify-content: unsafe center; width: 78px; height: 1px; padding-top: 110px; margin-left: 1px;"><div style="box-sizing: border-box; font-size: 0; text-align: center; color: #000000; "><div style="display: inline-block; font-size: 12px; font-family: Helvetica; color: #000000; line-height: 1.2; pointer-events: all; font-weight: bold; white-space: normal; word-wrap: normal; ">IP Camera<div><span style="font-weight: normal;"><font style="font-size: 10px;">RTSP</font></span></div></div></div></div></foreignObject><text x="40" y="114" fill="light-dark(#000000, #ffffff)" font-family="Helvetica" font-size="12px" text-anchor="middle" font-weight="bold">IP Camera...</text></switch></g></g></g><g data-cell-id="qbfOKORKpfoM7B88Iemy-2"><g transform="translate(0.5,0.5)"><rect x="133" y="0" width="570" height="220" fill="none" stroke="none" pointer-events="all"/><path d="M 133 0 C 247.37 -2.47 365.17 -2.08 703 0 M 133 0 C 340.13 4.21 545.96 4.19 703 0 M 703 0 C 707.21 54.78 706.4 105.15 703 220 M 703 0 C 702.24 86.14 701.65 170.6 703 220 M 703 220 C 548.77 218.74 391.98 218.72 133 220 M 703 220 C 561.85 218.77 421 218.42 133 220 M 133 220 C 131.75 144.64 128.16 64.18 133 0 M 133 220 C 130.84 162.54 132.71 101.76 133 0" fill="none" stroke="#000000" stroke-linejoin="round" stroke-linecap="round" stroke-miterlimit="10" pointer-events="all" style="stroke: rgb(0, 0, 0);"/></g><g><g><switch><foreignObject style="overflow: visible; text-align: left;" pointer-events="none" width="100%" height="100%" requiredFeatures="http://www.w3.org/TR/SVG11/feature#Extensibility"><div xmlns="http://www.w3.org/1999/xhtml" style="display: flex; align-items: unsafe flex-start; justify-content: unsafe flex-start; width: 568px; height: 1px; padding-top: 7px; margin-left: 135px;"><div style="box-sizing: border-box; font-size: 0; text-align: left; color: #000000; "><div style="display: inline-block; font-size: 12px; font-family: Helvetica; color: #000000; line-height: 1.2; pointer-events: all; white-space: normal; word-wrap: normal; "><b>  NVIDIA Jetson Orin NX 16GB</b></div></div></div></foreignObject><text x="135" y="19" fill="light-dark(#000000, #ffffff)" font-family="Helvetica" font-size="12px">  NVIDIA Jetson Orin NX 16GB</text></switch></g></g></g><g data-cell-id="qbfOKORKpfoM7B88Iemy-10"><g transform="translate(0.5,0.5)"><path d="M 153 80 L 153 40 L 303 40 L 303 80" fill="none" stroke="none" pointer-events="all"/><path d="M 153 80 C 149.04 67.04 154.24 59.69 153 40 M 153 80 C 154.64 68.32 155.51 57 153 40 M 153 40 C 185.82 40.01 212.36 36.92 303 40 M 153 40 C 202.5 37.49 247.27 36.99 303 40 M 303 40 C 301.45 48.88 300.77 59.51 303 80 M 303 40 C 303.38 52.46 303.61 69.62 303 80" fill="none" stroke="#000000" stroke-linejoin="round" stroke-linecap="round" stroke-miterlimit="10" pointer-events="all" style="stroke: rgb(0, 0, 0);"/><path d="M 153 80 C 150.26 114.46 155.45 154.53 153 200 M 153 80 C 152.07 111.36 152.94 143.09 153 200 M 153 200 C 185.82 200.01 212.36 196.92 303 200 M 153 200 C 202.5 197.49 247.27 196.99 303 200 M 303 200 C 299.98 174.63 299.3 151.01 303 80 M 303 200 C 304.76 156.25 305 117.2 303 80" fill="none" stroke="#000000" stroke-linejoin="round" stroke-linecap="round" stroke-miterlimit="10" pointer-events="none" style="stroke: rgb(0, 0, 0);"/><path d="M 153 80 C 193.81 80.04 243.46 84.54 303 80 M 153 80 C 194.35 78.45 235.57 77.89 303 80" fill="none" stroke="#000000" stroke-linejoin="round" stroke-linecap="round" stroke-miterlimit="10" pointer-events="none" style="stroke: rgb(0, 0, 0);"/></g><g><g><switch><foreignObject style="overflow: visible; text-align: left;" pointer-events="none" width="100%" height="100%" requiredFeatures="http://www.w3.org/TR/SVG11/feature#Extensibility"><div xmlns="http://www.w3.org/1999/xhtml" style="display: flex; align-items: unsafe flex-start; justify-content: unsafe center; width: 148px; height: 1px; padding-top: 47px; margin-left: 154px;"><div style="box-sizing: border-box; font-size: 0; text-align: center; color: #000000; "><div style="display: inline-block; font-size: 12px; font-family: Helvetica; color: #000000; line-height: 1.2; pointer-events: all; font-weight: bold; white-space: normal; word-wrap: normal; ">MediaMTX<div><span style="font-weight: normal;"><font style="font-size: 10px;">Docker Container</font></span></div></div></div></div></foreignObject><text x="228" y="59" fill="light-dark(#000000, #ffffff)" font-family="Helvetica" font-size="12px" text-anchor="middle" font-weight="bold">MediaMTX...</text></switch></g></g><g data-cell-id="qbfOKORKpfoM7B88Iemy-11"><g transform="translate(0.5,0.5)"><rect x="153" y="80" width="150" height="70" fill="none" stroke="none" pointer-events="all"/></g><g><g><switch><foreignObject style="overflow: visible; text-align: left;" pointer-events="none" width="100%" height="100%" requiredFeatures="http://www.w3.org/TR/SVG11/feature#Extensibility"><div xmlns="http://www.w3.org/1999/xhtml" style="display: flex; align-items: unsafe flex-start; justify-content: unsafe flex-start; width: 140px; height: 1px; padding-top: 87px; margin-left: 159px;"><div style="box-sizing: border-box; font-size: 0; text-align: left; max-height: 66px; overflow: hidden; color: #000000; "><div style="display: inline-block; font-size: 12px; font-family: Helvetica; color: #000000; line-height: 1.2; pointer-events: all; white-space: normal; word-wrap: normal; ">: 8554 RTSP<div>: 8888 HLS</div><div>: 8889 WebRTC</div><div>: 8890 ICE (UDP)</div></div></div></div></foreignObject><text x="159" y="99" fill="light-dark(#000000, #ffffff)" font-family="Helvetica" font-size="12px">: 8554 RTSP...</text></switch></g></g></g><g data-cell-id="qbfOKORKpfoM7B88Iemy-12"><g transform="translate(0.5,0.5)"><path d="M 153 154 L 303 154" fill="none" stroke="none" pointer-events="all"/><path d="M 153 154 C 197.24 156.68 242.18 153.98 303 154 M 153 154 C 186.74 155.69 217.86 156 303 154" fill="none" stroke="#000000" stroke-linejoin="round" stroke-linecap="round" stroke-miterlimit="10" pointer-events="all" style="stroke: rgb(0, 0, 0);"/></g></g><g data-cell-id="qbfOKORKpfoM7B88Iemy-13"><g transform="translate(0.5,0.5)"><rect x="153" y="158" width="150" height="42" fill="none" stroke="none" pointer-events="all"/></g><g><g><switch><foreignObject style="overflow: visible; text-align: left;" pointer-events="none" width="100%" height="100%" requiredFeatures="http://www.w3.org/TR/SVG11/feature#Extensibility"><div xmlns="http://www.w3.org/1999/xhtml" style="display: flex; align-items: unsafe flex-start; justify-content: unsafe flex-start; width: 140px; height: 1px; padding-top: 165px; margin-left: 159px;"><div style="box-sizing: border-box; font-size: 0; text-align: left; max-height: 38px; overflow: hidden; color: #000000; "><div style="display: inline-block; font-size: 12px; font-family: Helvetica; color: #000000; line-height: 1.2; pointer-events: all; white-space: normal; word-wrap: normal; ">Segment<div>Recording</div></div></div></div></foreignObject><text x="159" y="177" fill="light-dark(#000000, #ffffff)" font-family="Helvetica" font-size="12px">Segment...</text></switch></g></g></g></g><g data-cell-id="qbfOKORKpfoM7B88Iemy-23"><g transform="translate(0.5,0.5)"><path d="M 493 115 L 533 115" fill="none" stroke="none" pointer-events="stroke"/><path d="M 493 115 C 503.5 115.03 520.52 117.09 533 115 M 493 115 C 504.01 116.02 516.69 114.3 533 115" fill="none" stroke="#000000" stroke-linejoin="round" stroke-linecap="round" stroke-miterlimit="10" stroke-dasharray="3 3" pointer-events="stroke" style="stroke: rgb(0, 0, 0);"/></g></g><g data-cell-id="qbfOKORKpfoM7B88Iemy-14"><g transform="translate(0.5,0.5)"><path d="M 343 65 L 343 25 L 493 25 L 493 65" fill="none" stroke="none" pointer-events="all"/><path d="M 343 65 C 346.96 51.75 342.74 37.99 343 25 M 343 65 C 341.78 51.51 343.25 38.41 343 25 M 343 25 C 393.92 27.11 448.42 21.36 493 25 M 343 25 C 375.5 24.18 408.61 21.92 493 25 M 493 25 C 494.24 36.77 493.38 45.23 493 65 M 493 25 C 492.27 37.12 492.69 51.93 493 65" fill="none" stroke="#000000" stroke-linejoin="round" stroke-linecap="round" stroke-miterlimit="10" pointer-events="all" style="stroke: rgb(0, 0, 0);"/><path d="M 343 65 C 343.57 105.1 339.35 144.7 343 205 M 343 65 C 340.83 115.77 342.3 166.93 343 205 M 343 205 C 393.92 207.11 448.42 201.36 493 205 M 343 205 C 375.5 204.18 408.61 201.92 493 205 M 493 205 C 494.09 169.95 493.23 131.59 493 65 M 493 205 C 489.54 160.43 489.96 118.55 493 65" fill="none" stroke="#000000" stroke-linejoin="round" stroke-linecap="round" stroke-miterlimit="10" pointer-events="none" style="stroke: rgb(0, 0, 0);"/><path d="M 343 65 C 390.67 62.32 430.91 60.41 493 65 M 343 65 C 395.12 63.92 450.14 65.1 493 65" fill="none" stroke="#000000" stroke-linejoin="round" stroke-linecap="round" stroke-miterlimit="10" pointer-events="none" style="stroke: rgb(0, 0, 0);"/></g><g><g><switch><foreignObject style="overflow: visible; text-align: left;" pointer-events="none" width="100%" height="100%" requiredFeatures="http://www.w3.org/TR/SVG11/feature#Extensibility"><div xmlns="http://www.w3.org/1999/xhtml" style="display: flex; align-items: unsafe flex-start; justify-content: unsafe center; width: 148px; height: 1px; padding-top: 32px; margin-left: 344px;"><div style="box-sizing: border-box; font-size: 0; text-align: center; color: #000000; "><div style="display: inline-block; font-size: 12px; font-family: Helvetica; color: #000000; line-height: 1.2; pointer-events: all; font-weight: bold; white-space: normal; word-wrap: normal; ">App<div><span style="font-weight: normal;"><font style="font-size: 10px;">Docker Container</font></span></div></div></div></div></foreignObject><text x="418" y="44" fill="light-dark(#000000, #ffffff)" font-family="Helvetica" font-size="12px" text-anchor="middle" font-weight="bold">App...</text></switch></g></g><g data-cell-id="qbfOKORKpfoM7B88Iemy-15"><g transform="translate(0.5,0.5)"><rect x="343" y="65" width="150" height="30" fill="none" stroke="none" pointer-events="all"/></g><g><g><switch><foreignObject style="overflow: visible; text-align: left;" pointer-events="none" width="100%" height="100%" requiredFeatures="http://www.w3.org/TR/SVG11/feature#Extensibility"><div xmlns="http://www.w3.org/1999/xhtml" style="display: flex; align-items: unsafe flex-start; justify-content: unsafe flex-start; width: 140px; height: 1px; padding-top: 72px; margin-left: 349px;"><div style="box-sizing: border-box; font-size: 0; text-align: left; max-height: 26px; overflow: hidden; color: #000000; "><div style="display: inline-block; font-size: 12px; font-family: Helvetica; color: #000000; line-height: 1.2; pointer-events: all; white-space: normal; word-wrap: normal; ">: 8080 API</div></div></div></foreignObject><text x="349" y="84" fill="light-dark(#000000, #ffffff)" font-family="Helvetica" font-size="12px">: 8080 API</text></switch></g></g></g><g data-cell-id="qbfOKORKpfoM7B88Iemy-16"><g transform="translate(0.5,0.5)"><path d="M 343 99 L 493 99" fill="none" stroke="none" pointer-events="all"/><path d="M 343 99 C 386.1 98.96 429.63 97.85 493 99 M 343 99 C 387.5 101.16 432.42 99.21 493 99" fill="none" stroke="#000000" stroke-linejoin="round" stroke-linecap="round" stroke-miterlimit="10" pointer-events="all" style="stroke: rgb(0, 0, 0);"/></g></g><g data-cell-id="qbfOKORKpfoM7B88Iemy-17"><g transform="translate(0.5,0.5)"><rect x="343" y="103" width="150" height="102" fill="none" stroke="none" pointer-events="all"/></g><g><g><switch><foreignObject style="overflow: visible; text-align: left;" pointer-events="none" width="100%" height="100%" requiredFeatures="http://www.w3.org/TR/SVG11/feature#Extensibility"><div xmlns="http://www.w3.org/1999/xhtml" style="display: flex; align-items: unsafe flex-start; justify-content: unsafe flex-start; width: 140px; height: 1px; padding-top: 110px; margin-left: 349px;"><div style="box-sizing: border-box; font-size: 0; text-align: left; max-height: 98px; overflow: hidden; color: #000000; "><div style="display: inline-block; font-size: 12px; font-family: Helvetica; color: #000000; line-height: 1.2; pointer-events: all; white-space: normal; word-wrap: normal; ">GStreamer<div>→ GPU Decode</div><div>→ RingBuffer</div><div>→ VLM</div><div>→ Event Judge</div><div>→ FCM</div></div></div></div></foreignObject><text x="349" y="122" fill="light-dark(#000000, #ffffff)" font-family="Helvetica" font-size="12px">GStreamer...</text></switch></g></g></g></g><g data-cell-id="qbfOKORKpfoM7B88Iemy-18"><g transform="translate(0.5,0.5)"><path d="M 533 100 L 533 60 L 683 60 L 683 100" fill="none" stroke="none" pointer-events="all"/><path d="M 533 100 C 535.27 86.46 529.63 74.3 533 60 M 533 100 C 532.92 88.7 530.99 81.83 533 60 M 533 60 C 572.02 56.22 616.49 63.8 683 60 M 533 60 C 582.49 56.87 629.95 56.86 683 60 M 683 60 C 679.03 74.66 685.99 80.95 683 100 M 683 60 C 683.56 71.79 684.17 84.24 683 100" fill="none" stroke="#000000" stroke-linejoin="round" stroke-linecap="round" stroke-miterlimit="10" pointer-events="all" style="stroke: rgb(0, 0, 0);"/><path d="M 533 100 C 534.7 119.07 529.06 139.51 533 170 M 533 100 C 533.52 115.64 531.6 135.72 533 170 M 533 170 C 572.02 166.22 616.49 173.8 683 170 M 533 170 C 582.49 166.87 629.95 166.86 683 170 M 683 170 C 679.86 150.98 686.82 123.6 683 100 M 683 170 C 683.67 151.14 684.28 132.95 683 100" fill="none" stroke="#000000" stroke-linejoin="round" stroke-linecap="round" stroke-miterlimit="10" pointer-events="none" style="stroke: rgb(0, 0, 0);"/><path d="M 533 100 C 579.53 100.6 618.35 100.29 683 100 M 533 100 C 569.88 101.39 604.7 104.32 683 100" fill="none" stroke="#000000" stroke-linejoin="round" stroke-linecap="round" stroke-miterlimit="10" pointer-events="none" style="stroke: rgb(0, 0, 0);"/></g><g><g><switch><foreignObject style="overflow: visible; text-align: left;" pointer-events="none" width="100%" height="100%" requiredFeatures="http://www.w3.org/TR/SVG11/feature#Extensibility"><div xmlns="http://www.w3.org/1999/xhtml" style="display: flex; align-items: unsafe flex-start; justify-content: unsafe center; width: 148px; height: 1px; padding-top: 67px; margin-left: 534px;"><div style="box-sizing: border-box; font-size: 0; text-align: center; color: #000000; "><div style="display: inline-block; font-size: 12px; font-family: Helvetica; color: #000000; line-height: 1.2; pointer-events: all; font-weight: bold; white-space: normal; word-wrap: normal; ">API<div><span style="font-weight: normal;"><font style="font-size: 10px;">Docker Container</font></span></div></div></div></div></foreignObject><text x="608" y="79" fill="light-dark(#000000, #ffffff)" font-family="Helvetica" font-size="12px" text-anchor="middle" font-weight="bold">API...</text></switch></g></g><g data-cell-id="qbfOKORKpfoM7B88Iemy-19"><g transform="translate(0.5,0.5)"><rect x="533" y="100" width="150" height="30" fill="none" stroke="none" pointer-events="all"/></g><g><g><switch><foreignObject style="overflow: visible; text-align: left;" pointer-events="none" width="100%" height="100%" requiredFeatures="http://www.w3.org/TR/SVG11/feature#Extensibility"><div xmlns="http://www.w3.org/1999/xhtml" style="display: flex; align-items: unsafe flex-start; justify-content: unsafe flex-start; width: 140px; height: 1px; padding-top: 107px; margin-left: 539px;"><div style="box-sizing: border-box; font-size: 0; text-align: left; max-height: 26px; overflow: hidden; color: #000000; "><div style="display: inline-block; font-size: 12px; font-family: Helvetica; color: #000000; line-height: 1.2; pointer-events: all; white-space: normal; word-wrap: normal; ">: 8000 REST</div></div></div></foreignObject><text x="539" y="119" fill="light-dark(#000000, #ffffff)" font-family="Helvetica" font-size="12px">: 8000 REST</text></switch></g></g></g><g data-cell-id="qbfOKORKpfoM7B88Iemy-20"><g transform="translate(0.5,0.5)"><path d="M 533 134 L 683 134" fill="none" stroke="none" pointer-events="all"/><path d="M 533 134 C 574.98 129.95 623.68 130.81 683 134 M 533 134 C 577.29 131.59 624.96 130.56 683 134" fill="none" stroke="#000000" stroke-linejoin="round" stroke-linecap="round" stroke-miterlimit="10" pointer-events="all" style="stroke: rgb(0, 0, 0);"/></g></g><g data-cell-id="qbfOKORKpfoM7B88Iemy-21"><g transform="translate(0.5,0.5)"><rect x="533" y="138" width="150" height="32" fill="none" stroke="none" pointer-events="all"/></g><g><g><switch><foreignObject style="overflow: visible; text-align: left;" pointer-events="none" width="100%" height="100%" requiredFeatures="http://www.w3.org/TR/SVG11/feature#Extensibility"><div xmlns="http://www.w3.org/1999/xhtml" style="display: flex; align-items: unsafe flex-start; justify-content: unsafe flex-start; width: 140px; height: 1px; padding-top: 145px; margin-left: 539px;"><div style="box-sizing: border-box; font-size: 0; text-align: left; max-height: 28px; overflow: hidden; color: #000000; "><div style="display: inline-block; font-size: 12px; font-family: Helvetica; color: #000000; line-height: 1.2; pointer-events: all; white-space: normal; word-wrap: normal; ">SQLite</div></div></div></foreignObject><text x="539" y="157" fill="light-dark(#000000, #ffffff)" font-family="Helvetica" font-size="12px">SQLite</text></switch></g></g></g></g><g data-cell-id="qbfOKORKpfoM7B88Iemy-22"><g transform="translate(0.5,0.5)"><path d="M 303 115 L 343 115" fill="none" stroke="none" pointer-events="stroke"/><path d="M 303 115 C 315.79 118.07 327.16 111.72 343 115 M 303 115 C 312.74 116.08 323.38 115.92 343 115" fill="none" stroke="#000000" stroke-linejoin="round" stroke-linecap="round" stroke-miterlimit="10" stroke-dasharray="3 3" pointer-events="stroke" style="stroke: rgb(0, 0, 0);"/></g></g></g></g></g></svg>