<svg width="18" height="18" viewBox="0 0 18 18" fill="none" xmlns="http://www.w3.org/2000/svg">
<path d="M0 9C0 13.3492 4.02975 16.875 9 16.875C9.89144 16.877 10.7792 16.7612 11.6404 16.5308C12.2974 16.8638 13.806 17.5028 16.344 17.919C16.569 17.955 16.74 17.721 16.6511 17.5117C16.2529 16.5712 15.8929 15.318 15.7849 14.175C17.163 12.7913 18 10.98 18 9C18 4.65075 13.9703 1.125 9 1.125C4.02975 1.125 0 4.65075 0 9ZM12.9375 5.625C13.0867 5.625 13.2298 5.68426 13.3352 5.78975C13.4407 5.89524 13.5 6.03832 13.5 6.1875C13.5 6.33668 13.4407 6.47976 13.3352 6.58525C13.2298 6.69074 13.0867 6.75 12.9375 6.75H5.0625C4.91332 6.75 4.77024 6.69074 4.66475 6.58525C4.55926 6.47976 4.5 6.33668 4.5 6.1875C4.5 6.03832 4.55926 5.89524 4.66475 5.78975C4.77024 5.68426 4.91332 5.625 5.0625 5.625H12.9375ZM12.9375 8.4375C13.0867 8.4375 13.2298 8.49676 13.3352 8.60225C13.4407 8.70774 13.5 8.85082 13.5 9C13.5 9.14918 13.4407 9.29226 13.3352 9.39775C13.2298 9.50324 13.0867 9.5625 12.9375 9.5625H5.0625C4.91332 9.5625 4.77024 9.50324 4.66475 9.39775C4.55926 9.29226 4.5 9.14918 4.5 9C4.5 8.85082 4.55926 8.70774 4.66475 8.60225C4.77024 8.49676 4.91332 8.4375 5.0625 8.4375H12.9375ZM12.9375 11.25C13.0867 11.25 13.2298 11.3093 13.3352 11.4148C13.4407 11.5202 13.5 11.6633 13.5 11.8125C13.5 11.9617 13.4407 12.1048 13.3352 12.2102C13.2298 12.3157 13.0867 12.375 12.9375 12.375H8.4375C8.28832 12.375 8.14524 12.3157 8.03975 12.2102C7.93426 12.1048 7.875 11.9617 7.875 11.8125C7.875 11.6633 7.93426 11.5202 8.03975 11.4148C8.14524 11.3093 8.28832 11.25 8.4375 11.25H12.9375Z" fill="#5C5148"/>
</svg>
