<svg width="25" height="25" viewBox="0 0 25 25" fill="none" xmlns="http://www.w3.org/2000/svg">
<path d="M17.8469 13.1583V11.2833C17.8476 10.0161 17.4208 8.78563 16.6356 7.79097C15.8504 6.79631 14.7526 6.09557 13.5198 5.80208C13.5291 5.7657 13.5364 5.72884 13.5417 5.69167V3.22917C13.5417 2.9529 13.4319 2.68795 13.2366 2.4926C13.0412 2.29725 12.7763 2.1875 12.5 2.1875C12.2237 2.1875 11.9588 2.29725 11.7634 2.4926C11.5681 2.68795 11.4583 2.9529 11.4583 3.22917V5.69167C11.4636 5.72884 11.4709 5.7657 11.4802 5.80208C10.2474 6.09557 9.14964 6.79631 8.36442 7.79097C7.5792 8.78563 7.15243 10.0161 7.15313 11.2833V13.1583C7.15313 15.6437 5.20834 16.2646 5.20834 17.5073C5.20834 18.125 5.20834 18.75 5.76875 18.75H19.2313C19.7917 18.75 19.7917 18.125 19.7917 17.5073C19.7917 16.2646 17.8469 15.6437 17.8469 13.1583ZM9.19063 19.7917C9.46696 20.4407 9.92801 20.9941 10.5164 21.3831C11.1048 21.772 11.7946 21.9794 12.5 21.9794C13.2054 21.9794 13.8952 21.772 14.4836 21.3831C15.072 20.9941 15.533 20.4407 15.8094 19.7917H9.19063Z" fill="#3A2D28"/>
</svg>
