<svg width="25" height="25" viewBox="0 0 25 25" fill="none" xmlns="http://www.w3.org/2000/svg">
<path d="M12.5 5.58854V3.125M12.5 5.58854C13.9426 5.64448 15.307 6.25912 16.3048 7.30257C17.3025 8.34601 17.8555 9.73652 17.8469 11.1802V13.0552C17.8469 15.5406 19.7917 16.1615 19.7917 17.4042C19.7917 18.0219 19.7917 18.75 19.2313 18.75H5.76875C5.20834 18.75 5.20834 18.0219 5.20834 17.4042C5.20834 16.1615 7.15313 15.5406 7.15313 13.0552V11.1802C7.14447 9.73652 7.69746 8.34601 8.69523 7.30257C9.693 6.25912 11.0574 5.64448 12.5 5.58854ZM9.09688 18.75C9.19479 19.6375 9.41563 20.3542 10.0802 20.95C10.7452 21.5462 11.6069 21.8759 12.5 21.8759C13.3931 21.8759 14.2548 21.5462 14.9198 20.95C15.5844 20.3542 16.2073 19.6375 16.3052 18.75H9.09688Z" stroke="#3A2D28" stroke-width="2" stroke-linecap="round" stroke-linejoin="round"/>
</svg>
