<svg width="25" height="25" viewBox="0 0 25 25" fill="none" xmlns="http://www.w3.org/2000/svg">
<path d="M2.08333 19.7916C2.08333 21.5625 3.4375 22.9166 5.20833 22.9166H19.7917C21.5625 22.9166 22.9167 21.5625 22.9167 19.7916V11.4583H2.08333V19.7916ZM19.7917 4.16665H17.7083V3.12498C17.7083 2.49998 17.2917 2.08331 16.6667 2.08331C16.0417 2.08331 15.625 2.49998 15.625 3.12498V4.16665H9.375V3.12498C9.375 2.49998 8.95833 2.08331 8.33333 2.08331C7.70833 2.08331 7.29167 2.49998 7.29167 3.12498V4.16665H5.20833C3.4375 4.16665 2.08333 5.52081 2.08333 7.29165V9.37498H22.9167V7.29165C22.9167 5.52081 21.5625 4.16665 19.7917 4.16665Z" fill="#3A2D28"/>
</svg>
