<svg width="25" height="25" viewBox="0 0 25 25" fill="none" xmlns="http://www.w3.org/2000/svg">
<path fill-rule="evenodd" clip-rule="evenodd" d="M10.1854 21.875H14.8146C18.0656 21.875 19.6916 21.875 20.8594 21.1094C21.3633 20.7793 21.7973 20.3531 22.1364 19.8552C22.9166 18.7094 22.9166 17.1125 22.9166 13.9208C22.9166 10.7292 22.9166 9.13228 22.1364 7.98645C21.7973 7.48852 21.3633 7.06234 20.8594 6.73228C20.1094 6.23957 19.1698 6.06353 17.7312 6.00103C17.0448 6.00103 16.4541 5.49061 16.3198 4.82915C16.2171 4.34464 15.9503 3.91044 15.5644 3.59994C15.1786 3.28943 14.6973 3.12166 14.2021 3.12499H10.7979C9.76873 3.12499 8.88227 3.83853 8.68019 4.82915C8.54581 5.49061 7.95519 6.00103 7.26873 6.00103C5.83123 6.06353 4.89165 6.24061 4.1406 6.73228C3.637 7.06245 3.20339 7.48862 2.86456 7.98645C2.08331 9.13228 2.08331 10.7281 2.08331 13.9208C2.08331 17.1135 2.08331 18.7083 2.86352 19.8552C3.20102 20.351 3.63435 20.7771 4.1406 21.1094C5.30831 21.875 6.93435 21.875 10.1854 21.875ZM12.5 9.65936C10.1031 9.65936 8.15936 11.5667 8.15936 13.9198C8.15936 16.2729 10.1041 18.1833 12.5 18.1833C14.8958 18.1833 16.8406 16.275 16.8406 13.9219C16.8406 11.5687 14.8958 9.65936 12.5 9.65936ZM12.5 11.3635C11.0625 11.3635 9.89581 12.5083 9.89581 13.9208C9.89581 15.3323 11.0625 16.4771 12.5 16.4771C13.9375 16.4771 15.1041 15.3323 15.1041 13.9208C15.1041 12.5094 13.9375 11.3635 12.5 11.3635ZM17.4187 10.5114C17.4187 10.0406 17.8073 9.65936 18.2875 9.65936H19.4437C19.9229 9.65936 20.3125 10.0406 20.3125 10.5114C20.3103 10.7395 20.2177 10.9573 20.055 11.1171C19.8923 11.2768 19.6728 11.3655 19.4448 11.3635H18.2875C18.1745 11.3646 18.0624 11.3435 17.9576 11.3012C17.8528 11.259 17.7573 11.1965 17.6766 11.1174C17.596 11.0383 17.5317 10.9441 17.4874 10.8401C17.4432 10.7361 17.4198 10.6244 17.4187 10.5114Z" fill="#2D2926"/>
</svg>
