<svg width="6" height="6" viewBox="0 0 6 6" fill="none" xmlns="http://www.w3.org/2000/svg">
<path d="M3.00002 2.7C2.84089 2.7 2.68828 2.63679 2.57576 2.52426C2.46324 2.41174 2.40002 2.25913 2.40002 2.1C2.40002 1.94087 2.46324 1.78826 2.57576 1.67574C2.68828 1.56321 2.84089 1.5 3.00002 1.5C3.15915 1.5 3.31177 1.56321 3.42429 1.67574C3.53681 1.78826 3.60002 1.94087 3.60002 2.1C3.60002 2.25913 3.53681 2.41174 3.42429 2.52426C3.31177 2.63679 3.15915 2.7 3.00002 2.7ZM3.00002 4.5C2.84089 4.5 2.68828 4.43679 2.57576 4.32426C2.46324 4.21174 2.40002 4.05913 2.40002 3.9C2.40002 3.74087 2.46324 3.58826 2.57576 3.47574C2.68828 3.36321 2.84089 3.3 3.00002 3.3C3.15915 3.3 3.31177 3.36321 3.42429 3.47574C3.53681 3.58826 3.60002 3.74087 3.60002 3.9C3.60002 4.05913 3.53681 4.21174 3.42429 4.32426C3.31177 4.43679 3.15915 4.5 3.00002 4.5Z" fill="#84776E"/>
</svg>
