<svg width="25" height="25" viewBox="0 0 25 25" fill="none" xmlns="http://www.w3.org/2000/svg">
<path fill-rule="evenodd" clip-rule="evenodd" d="M19.8646 12.5104C20.0002 12.5296 20.1307 12.5753 20.2486 12.645C20.3666 12.7146 20.4696 12.8069 20.5518 12.9164C20.6341 13.0259 20.6939 13.1506 20.7279 13.2833C20.7619 13.4159 20.7694 13.554 20.75 13.6896C20.4889 15.4959 19.6423 17.1666 18.3402 18.4454C17.0381 19.7242 15.3524 20.5404 13.5417 20.7688V21.875C13.5417 22.1513 13.4319 22.4162 13.2366 22.6116C13.0412 22.8069 12.7763 22.9167 12.5 22.9167C12.2237 22.9167 11.9588 22.8069 11.7634 22.6116C11.5681 22.4162 11.4583 22.1513 11.4583 21.875V20.7688C9.64788 20.54 7.96247 19.7236 6.66059 18.4449C5.35871 17.1662 4.51225 15.4956 4.25104 13.6896C4.21181 13.4161 4.28283 13.1382 4.44849 12.9171C4.61415 12.6959 4.86087 12.5497 5.13437 12.5104C5.40787 12.4712 5.68576 12.5422 5.9069 12.7079C6.12803 12.8735 6.27431 13.1203 6.31354 13.3938C6.53053 14.8796 7.27506 16.2377 8.41099 17.2198C9.54693 18.2019 10.9984 18.7424 12.5 18.7424C14.0016 18.7424 15.4531 18.2019 16.589 17.2198C17.7249 16.2377 18.4695 14.8796 18.6865 13.3938C18.7059 13.2583 18.7518 13.128 18.8215 13.0104C18.8913 12.8927 18.9836 12.7899 19.0931 12.7078C19.2026 12.6258 19.3271 12.5662 19.4597 12.5323C19.5923 12.4984 19.7291 12.491 19.8646 12.5104ZM12.5 2.08334C13.8813 2.08334 15.2061 2.63208 16.1828 3.60883C17.1596 4.58558 17.7083 5.91034 17.7083 7.29168V12.5C17.7083 13.8813 17.1596 15.2061 16.1828 16.1829C15.2061 17.1596 13.8813 17.7083 12.5 17.7083C11.1187 17.7083 9.7939 17.1596 8.81715 16.1829C7.8404 15.2061 7.29166 13.8813 7.29166 12.5V7.29168C7.29166 5.91034 7.8404 4.58558 8.81715 3.60883C9.7939 2.63208 11.1187 2.08334 12.5 2.08334ZM12.5 4.16668C11.6712 4.16668 10.8763 4.49592 10.2903 5.08197C9.70423 5.66802 9.375 6.46288 9.375 7.29168V12.5C9.375 13.3288 9.70423 14.1237 10.2903 14.7097C10.8763 15.2958 11.6712 15.625 12.5 15.625C13.3288 15.625 14.1237 15.2958 14.7097 14.7097C15.2958 14.1237 15.625 13.3288 15.625 12.5V7.29168C15.625 6.46288 15.2958 5.66802 14.7097 5.08197C14.1237 4.49592 13.3288 4.16668 12.5 4.16668Z" fill="#2D2926"/>
</svg>
