<svg width="25" height="25" viewBox="0 0 25 25" fill="none" xmlns="http://www.w3.org/2000/svg">
<path d="M7.8125 5.46875C7.8125 4.43275 8.22405 3.43918 8.95662 2.70661C9.68918 1.97405 10.6828 1.5625 11.7188 1.5625C12.7548 1.5625 13.7483 1.97405 14.4809 2.70661C15.2135 3.43918 15.625 4.43275 15.625 5.46875V13.9844C16.3786 14.7536 16.8884 15.7281 17.0904 16.7859C17.2924 17.8436 17.1776 18.9375 16.7605 19.9303C16.3433 20.923 15.6423 21.7705 14.7454 22.3665C13.8485 22.9625 12.7956 23.2805 11.7188 23.2805C10.6419 23.2805 9.58899 22.9625 8.69209 22.3665C7.79519 21.7705 7.0942 20.923 6.67703 19.9303C6.25986 18.9375 6.14508 17.8436 6.34707 16.7859C6.54907 15.7281 7.05885 14.7536 7.8125 13.9844V5.46875ZM11.7188 3.125C11.0972 3.125 10.501 3.37193 10.0615 3.81147C9.62193 4.25101 9.375 4.84715 9.375 5.46875V14.6672L9.11563 14.9016C8.5259 15.4289 8.1102 16.123 7.92355 16.8918C7.7369 17.6606 7.7881 18.4679 8.07036 19.207C8.35262 19.9461 8.85265 20.582 9.50427 21.0307C10.1559 21.4794 10.9284 21.7196 11.7195 21.7196C12.5107 21.7196 13.2832 21.4794 13.9348 21.0307C14.5864 20.582 15.0864 19.9461 15.3687 19.207C15.651 18.4679 15.7022 17.6606 15.5155 16.8918C15.3289 16.123 14.9132 15.4289 14.3234 14.9016L14.0625 14.6656V5.46875C14.0625 4.84715 13.8156 4.25101 13.376 3.81147C12.9365 3.37193 12.3404 3.125 11.7188 3.125ZM12.5 9.375C12.5 9.1678 12.4177 8.96909 12.2712 8.82257C12.1247 8.67606 11.926 8.59375 11.7188 8.59375C11.5116 8.59375 11.3128 8.67606 11.1663 8.82257C11.0198 8.96909 10.9375 9.1678 10.9375 9.375V15.7578C10.4162 15.9421 9.97691 16.3047 9.69717 16.7816C9.41742 17.2585 9.31526 17.8189 9.40876 18.3639C9.50225 18.9088 9.78537 19.4031 10.2081 19.7595C10.6308 20.1158 11.1659 20.3113 11.7188 20.3113C12.2716 20.3113 12.8067 20.1158 13.2294 19.7595C13.6521 19.4031 13.9353 18.9088 14.0287 18.3639C14.1222 17.8189 14.0201 17.2585 13.7403 16.7816C13.4606 16.3047 13.0213 15.9421 12.5 15.7578V9.375Z" fill="#2D2926"/>
</svg>
