<svg width="25" height="25" viewBox="0 0 25 25" fill="none" xmlns="http://www.w3.org/2000/svg">
<path fill-rule="evenodd" clip-rule="evenodd" d="M3.59062 21.0906C2.89995 21.0906 2.23757 20.8162 1.74919 20.3279C1.26082 19.8395 0.98645 19.1771 0.98645 18.4864V6.51353C0.98645 5.82286 1.26082 5.16048 1.74919 4.67211C2.23757 4.18373 2.89995 3.90936 3.59062 3.90936H15.7927C16.4834 3.90936 17.1457 4.18373 17.6341 4.67211C18.1225 5.16048 18.3969 5.82286 18.3969 6.51353V9.16978L21.65 7.2302C21.8872 7.08858 22.1576 7.01237 22.4338 7.00933C22.7101 7.0063 22.9822 7.07654 23.2224 7.2129C23.4626 7.34927 23.6624 7.54688 23.8014 7.78561C23.9403 8.02433 24.0136 8.29563 24.0135 8.57186V16.4312C24.0134 16.7073 23.9402 16.9784 23.8013 17.217C23.6624 17.4556 23.4627 17.6531 23.2226 17.7894C22.9826 17.9258 22.7107 17.9961 22.4346 17.9932C22.1585 17.9903 21.8882 17.9143 21.651 17.7729L18.3958 15.8333V18.4864C18.3958 19.1771 18.1215 19.8395 17.6331 20.3279C17.1447 20.8162 16.4823 21.0906 15.7917 21.0906H3.59062ZM6.74582 13.1375C6.7052 13.0432 6.6464 12.9579 6.5728 12.8864C6.4992 12.8149 6.41223 12.7585 6.31685 12.7206C6.22148 12.6827 6.11957 12.6639 6.01695 12.6654C5.91432 12.6669 5.81299 12.6885 5.71874 12.7292C5.62449 12.7698 5.53917 12.8286 5.46764 12.9022C5.39611 12.9758 5.33978 13.0628 5.30186 13.1581C5.26394 13.2535 5.24518 13.3554 5.24665 13.458C5.24811 13.5607 5.26978 13.662 5.31041 13.7562C5.679 14.6128 6.29051 15.3425 7.06936 15.8552C7.8482 16.368 8.76023 16.6412 9.6927 16.6412C10.6252 16.6412 11.5372 16.368 12.316 15.8552C13.0949 15.3425 13.7064 14.6128 14.075 13.7562C14.1156 13.662 14.1373 13.5607 14.1388 13.458C14.1402 13.3554 14.1215 13.2535 14.0835 13.1581C14.0456 13.0628 13.9893 12.9758 13.9178 12.9022C13.8462 12.8286 13.7609 12.7698 13.6667 12.7292C13.5724 12.6885 13.4711 12.6669 13.3685 12.6654C13.2658 12.6639 13.1639 12.6827 13.0685 12.7206C12.9732 12.7585 12.8862 12.8149 12.8126 12.8864C12.739 12.9579 12.6802 13.0432 12.6396 13.1375C12.3917 13.7134 11.9804 14.204 11.4567 14.5488C10.933 14.8935 10.3197 15.0772 9.6927 15.0772C9.0657 15.0772 8.45244 14.8935 7.92871 14.5488C7.40498 14.204 6.99375 13.7134 6.74582 13.1375ZM6.24374 10.6844C6.56048 10.6844 6.86425 10.5585 7.08822 10.3346C7.31219 10.1106 7.43801 9.80683 7.43801 9.49009C7.43801 9.17335 7.31219 8.86958 7.08822 8.64561C6.86425 8.42165 6.56048 8.29582 6.24374 8.29582C5.927 8.29582 5.62323 8.42165 5.39926 8.64561C5.1753 8.86958 5.04947 9.17335 5.04947 9.49009C5.04947 9.80683 5.1753 10.1106 5.39926 10.3346C5.62323 10.5585 5.927 10.6844 6.24374 10.6844ZM14.3354 9.48957C14.3354 9.80631 14.2096 10.1101 13.9856 10.334C13.7616 10.558 13.4579 10.6838 13.1411 10.6838C12.8244 10.6838 12.5206 10.558 12.2967 10.334C12.0727 10.1101 11.9469 9.80631 11.9469 9.48957C11.9469 9.17283 12.0727 8.86906 12.2967 8.64509C12.5206 8.42112 12.8244 8.2953 13.1411 8.2953C13.4579 8.2953 13.7616 8.42112 13.9856 8.64509C14.2096 8.86906 14.3354 9.17283 14.3354 9.48957Z" fill="#2D2926"/>
</svg>
